<?xml version="1.0" encoding="UTF-8" standalone="no"?>
<!-- Created with Inkscape (http://www.inkscape.org/) -->

<svg
   xmlns:dc="http://purl.org/dc/elements/1.1/"
   xmlns:cc="http://creativecommons.org/ns#"
   xmlns:rdf="http://www.w3.org/1999/02/22-rdf-syntax-ns#"
   xmlns:svg="http://www.w3.org/2000/svg"
   xmlns="http://www.w3.org/2000/svg"
   xmlns:sodipodi="http://sodipodi.sourceforge.net/DTD/sodipodi-0.dtd"
   xmlns:inkscape="http://www.inkscape.org/namespaces/inkscape"
   width="459mm"
   height="353mm"
   viewBox="0 0 1626.3769 1250.787"
   id="svg4233"
   version="1.1"
   inkscape:version="0.91 r13725"
   sodipodi:docname="drawing.svg">
  <defs
     id="defs4235">
    <inkscape:perspective
       sodipodi:type="inkscape:persp3d"
       inkscape:vp_x="0 : 625.3935 : 1"
       inkscape:vp_y="0 : 1000 : 0"
       inkscape:vp_z="1417.3217 : 625.3935 : 1"
       inkscape:persp3d-origin="708.66092 : 416.929 : 1"
       id="perspective4834" />
  </defs>
  <sodipodi:namedview
     id="base"
     pagecolor="#ffffff"
     bordercolor="#666666"
     borderopacity="1.0"
     inkscape:pageopacity="0.0"
     inkscape:pageshadow="2"
     inkscape:zoom="0.5"
     inkscape:cx="447.30226"
     inkscape:cy="618.55096"
     inkscape:document-units="px"
     inkscape:current-layer="layer1"
     showgrid="true"
     inkscape:snap-text-baseline="true"
     inkscape:snap-to-guides="false"
     inkscape:window-width="686"
     inkscape:window-height="405"
     inkscape:window-x="618"
     inkscape:window-y="76"
     inkscape:window-maximized="0">
    <inkscape:grid
       type="xygrid"
       id="grid4797" />
  </sodipodi:namedview>
  <metadata
     id="metadata4238">
    <rdf:RDF>
      <cc:Work
         rdf:about="">
        <dc:format>image/svg+xml</dc:format>
        <dc:type
           rdf:resource="http://purl.org/dc/dcmitype/StillImage" />
        <dc:title></dc:title>
      </cc:Work>
    </rdf:RDF>
  </metadata>
  <g
     inkscape:label="Layer 1"
     inkscape:groupmode="layer"
     id="layer1"
     transform="translate(0,198.4253)">
    <ellipse
       style="fill:#b3b3b3;fill-opacity:0.98000004"
       id="path4799"
       cx="811.96136"
       cy="280.76883"
       rx="663.40442"
       ry="232.91557"
       transform="matrix(0.9791475,0.20315061,-0.17696496,0.98421715,0,0)"
       inkscape:transform-center-x="117.51327"
       inkscape:transform-center-y="36.427731" />
    <path
       style="fill:#757575;fill-opacity:0.98000004"
       id="path4803"
       transform="matrix(0.94876969,-0.31596847,0.94470551,0.32791997,0,0)"
       sodipodi:type="arc"
       sodipodi:cx="-195.08492"
       sodipodi:cy="912.7005"
       sodipodi:rx="352.74881"
       sodipodi:ry="629.57733"
       sodipodi:start="0"
       sodipodi:end="6.2784396"
       sodipodi:open="true"
       d="M 157.66389,912.7005 A 352.74881,629.57733 0 0 1 -194.6664,1542.2774 352.74881,629.57733 0 0 1 -547.83273,914.19439 352.74881,629.57733 0 0 1 -196.34044,283.12716 352.74881,629.57733 0 0 1 157.65992,909.71272" />
    <ellipse
       style="fill:#cccccc;fill-opacity:0.98000004"
       id="path4807"
       cx="361.42844"
       cy="409.5047"
       rx="238.57147"
       ry="31.42853" />
    <path
       style="fill:#666666;fill-opacity:0.98000004"
       id="path4832"
       d="m 643.89489,-320.1021 c 4.90398,0.3318 9.62822,0.72451 14.14195,-1.44736 15.34646,-6.78793 3.12927,-1.55491 -32.74001,22.7572 0,0 35.56424,-23.03762 35.56424,-23.03762 l 0,0 c -33.94937,25.48814 -20.08218,20.60381 -35.77889,25.79286 -5.13343,0.88325 -10.31121,0.58772 -15.49815,0.86322 0,0 34.31086,-24.9283 34.31086,-24.9283 z"
       inkscape:connector-curvature="0" />
    <path
       style="fill:#808080;fill-opacity:0.98000004"
       d="M 1050.0902,412.46391 C 1043.0188,410.196 994.16164,395.99457 941.51878,380.90523 888.87592,365.81585 845.24057,352.94351 844.55133,352.3 c -0.68924,-0.64349 1.56076,-6.96189 5,-14.04089 3.43924,-7.079 6.25316,-14.76506 6.25316,-17.08017 0,-2.31511 1.3616,-4.20929 3.02577,-4.20929 1.66417,0 2.23114,-1.28571 1.25995,-2.85714 -0.9712,-1.57143 -0.68143,-2.85714 0.64393,-2.85714 3.0991,0 13.29635,-17.12843 10.23189,-17.18661 -1.26742,-0.024 -0.84895,-0.98835 0.92992,-2.14286 1.77888,-1.15451 5.63602,-6.74833 8.57143,-12.43071 2.93541,-5.68239 8.89006,-16.92366 13.23255,-24.9806 4.3425,-8.05694 7.74617,-15.41538 7.56373,-16.35208 -0.18246,-0.93671 2.67363,-5.12401 6.34683,-9.30512 3.67319,-4.18111 6.37666,-8.56631 6.0077,-9.74488 -0.36896,-1.17857 0.5571,-2.14286 2.0579,-2.14286 1.50081,0 10.67458,-10.60714 20.38617,-23.57142 9.71158,-12.96429 44.7887,-50.8877 77.94914,-84.27425 l 60.2918,-60.702825 52.1069,-17.367637 c 48.3805,-16.125602 62.5075,-18.736559 55.5029,-10.258072 -1.5073,1.824385 -4.8351,11.674206 -7.3952,21.888492 -6.1966,24.72294 -9.5946,32.9048 -16.1172,38.80769 -4.3936,3.97608 -5.4532,8.88828 -5.4532,25.278242 0,13.06632 -3.1388,33.09265 -8.7747,55.98575 -4.8261,19.60343 -9.1561,38.21403 -9.6222,41.35689 -0.4662,3.14286 -1.7961,7.95948 -2.9555,10.7036 -1.1594,2.74413 -2.2937,8.2075 -2.5206,12.14084 -0.2272,3.93334 -1.377,7.15243 -2.5556,7.15354 -1.1786,0.001 -2.1429,1.93059 -2.1429,4.28774 0,2.35714 1.5315,4.28571 3.4033,4.28571 1.913,0 1.3221,1.56378 -1.3496,3.57143 -4.8836,3.66965 -17.3402,49.64059 -14.6364,54.01537 0.8203,1.32726 -0.02,2.4132 -1.8676,2.4132 -1.9523,0 -2.7332,2.393 -1.8647,5.71429 0.8219,3.14285 0.1791,5.71428 -1.4285,5.71428 -1.6076,0 -2.2505,2.57143 -1.4286,5.71429 0.8219,3.14285 0.179,5.71428 -1.4286,5.71428 -1.6076,0 -2.2504,2.57143 -1.4286,5.71429 0.8219,3.14286 0.1791,5.71428 -1.4285,5.71428 -1.6076,0 -2.2505,2.57143 -1.4286,5.71429 0.8219,3.14286 0.179,5.71429 -1.4286,5.71429 -1.6076,0 -2.2504,2.57142 -1.4285,5.71428 0.8218,3.14286 0.179,5.71429 -1.4286,5.71429 -1.6076,0 -2.2505,2.57143 -1.4286,5.71428 0.8219,3.14286 0.179,5.71429 -1.4286,5.71429 -1.6075,0 -2.2504,2.57143 -1.4285,5.71428 0.8218,3.14286 0.179,5.71429 -1.4286,5.71429 -1.6076,0 -2.2504,2.57143 -1.4286,5.71429 0.8219,3.14285 0.442,5.71428 -0.8442,5.71428 -1.2862,0 -3.2074,5.14286 -4.2693,11.42857 -1.7865,10.57375 -2.6067,11.41429 -10.9655,11.23743 -4.969,-0.10511 -14.8203,-2.04668 -21.8917,-4.3146 z"
       id="path4852"
       inkscape:connector-curvature="0" />
    <path
       style="fill:#999999;fill-opacity:0.98000004"
       d="m 1119.5995,71.109274 c 0.013,-11 0.5291,-15.149894 1.1476,-9.221988 0.6185,5.927907 0.6081,14.927907 -0.023,20 -0.6312,5.072094 -1.1373,0.221988 -1.1246,-10.778012 z"
       id="path4856"
       inkscape:connector-curvature="0"
       transform="translate(-3.0517571e-4,-198.4253)" />
    <path
       style="fill:#999999;fill-opacity:0.98000004"
       d=""
       id="path4860"
       inkscape:connector-curvature="0"
       transform="translate(-3.0517571e-4,-198.4253)" />
    <path
       style="fill:#000000;fill-opacity:0.98000004"
       id="path4864"
       sodipodi:type="arc"
       sodipodi:cx="-151.08154"
       sodipodi:cy="453.12311"
       sodipodi:rx="29.999998"
       sodipodi:ry="22.857252"
       sodipodi:start="0"
       sodipodi:end="6.2356876"
       d="m -121.08154,453.12311 a 29.999998,22.857252 0 0 1 -29.64378,22.85564 29.999998,22.857252 0 0 1 -30.34776,-22.31286 29.999998,22.857252 0 0 1 28.92306,-23.38553 29.999998,22.857252 0 0 1 31.03464,21.75749 l -29.96616,1.08526 z"
       transform="matrix(0.19187929,-0.98141853,0.98141853,0.19187929,0,0)" />
    <path
       style="fill:none;fill-rule:evenodd;stroke:#000000;stroke-width:1px;stroke-linecap:butt;stroke-linejoin:miter;stroke-opacity:1"
       d="m 199.99969,452.36205 c 0,-11.42857 0,-22.85714 0,-34.28571 0,-0.95238 -0.42592,-2.00531 0,-2.85714 3.15865,-6.3173 1.77327,-0.88664 5.71429,-2.85715 11.89074,-5.94537 -3.05439,0.19725 2.85714,-5.71428 0.67343,-0.67344 2.18371,0.67343 2.85714,0 1.50585,-1.50585 1.3513,-4.20844 2.85714,-5.71429 0.28572,-0.28571 8.28572,-0.28571 8.57143,0 0.67344,0.67344 0,1.90476 0,2.85714 0,5.71429 0,11.42858 0,17.14286 0,1.90476 0,3.80953 0,5.71429 0,0.95238 0.95238,2.85714 0,2.85714 -0.95238,0 0,-3.80952 0,-2.85714 0,1.90476 0,3.80952 0,5.71428 0,0.95238 -0.6198,2.13404 0,2.85715 5.25919,6.13572 11.42857,11.42857 17.14286,17.14285"
       id="path4866"
       inkscape:connector-curvature="0" />
    <path
       style="fill:none;fill-rule:evenodd;stroke:#000000;stroke-width:1px;stroke-linecap:butt;stroke-linejoin:miter;stroke-opacity:1"
       d="m 279.99969,452.36205 c 3.0378,-11.71013 2.85714,-22.6527 2.85714,-34.28571 0,-1.90476 0,-3.80952 0,-5.71429 0,-0.95238 -0.95238,-2.85714 0,-2.85714 0.95238,0 0,3.80952 0,2.85714 0,-1.90476 -0.85183,-4.01061 0,-5.71428 0.42592,-0.85184 2.85715,-0.95238 2.85715,0 0,0.95238 -2.85715,0.95238 -2.85715,0 0,-2.12959 1.3513,-4.20844 2.85715,-5.71429 0.67343,-0.67343 1.90476,0 2.85714,0 1.90476,-0.95238 4.20844,-1.35129 5.71428,-2.85714 1.34687,-1.34687 -1.90476,-5.71429 0,-5.71429 0.95239,0 0,1.90477 0,2.85715 0,0.95238 0,1.90476 0,2.85714 0,4.7619 0,9.52381 0,14.28571 0,1.90477 -0.85183,4.01062 0,5.71429 0.42592,0.85183 2.00531,-0.42592 2.85715,0 1.20467,0.60234 1.57939,2.43122 2.85714,2.85714 1.80702,0.60234 4.36742,-1.34687 5.71429,0 0.68098,0.68098 0,9.58248 0,11.42857 0,0.95238 0,1.90477 0,2.85715 0,0.95238 0.95238,2.85714 0,2.85714 -0.95239,0 -0.95239,-2.85714 0,-2.85714 5.94537,0 1.14962,4.00676 2.85714,5.71428 0.67343,0.67344 2.85714,-0.95238 2.85714,0 0,0.95238 -1.90476,0 -2.85714,0 2.85714,0 5.79959,-0.69296 8.57143,0 4.46213,1.11554 2.85714,8.73274 2.85714,11.42857"
       id="path4868"
       inkscape:connector-curvature="0" />
    <path
       style="fill:none;fill-rule:evenodd;stroke:#000000;stroke-width:1px;stroke-linecap:butt;stroke-linejoin:miter;stroke-opacity:1"
       d="m 399.99969,452.36205 c -8.99735,-17.99469 -8.57143,-10.75409 -8.57143,-20 0,-0.95238 0.67344,-2.1837 0,-2.85714 -1.50585,-1.50585 -4.20844,-1.3513 -5.71428,-2.85714 -0.11498,-0.11498 0,-10.37933 0,-11.42857 0,-1.90477 0,-3.80953 0,-5.71429 0,-0.95238 -0.95239,-2.85714 0,-2.85714 0.95238,0 0,3.80952 0,2.85714 0,-2.85714 -0.90351,-5.8609 0,-8.57143 0.30117,-0.90351 1.90476,0 2.85714,0 0.95238,0 2.18371,-0.67343 2.85714,0 1.50585,1.50585 1.67586,3.94236 2.85714,5.71429 1.49422,2.24133 4.50961,3.30493 5.71429,5.71428 1.34687,2.69374 1.51027,5.87769 2.85714,8.57143 1.20468,2.40936 5.06096,3.10098 5.71429,5.71429 0.69296,2.77183 -1.27775,6.01592 0,8.57143 0.95238,1.90476 4.20844,1.35129 5.71428,2.85714 0.68752,0.68752 -0.68751,10.74105 0,11.42857 1.50585,1.50585 4.20844,1.3513 5.71429,2.85714 1.34687,1.34687 -1.34687,4.36742 0,5.71429 0.67344,0.67343 2.18371,-0.67344 2.85714,0 0.67344,0.67343 -0.67343,2.18371 0,2.85714 0.67344,0.67344 2.00531,-0.42592 2.85715,0 1.20467,0.60234 1.65246,2.25481 2.85714,2.85714 0.85183,0.42592 2.00531,-0.42591 2.85714,0 1.20468,0.60234 1.65247,2.25481 2.85714,2.85715 0.85184,0.42592 1.90477,0 2.85715,0 1.70751,0 5.71428,0.67343 5.71428,-2.85715 0,-3.92676 -1.90476,-7.61904 -2.85714,-11.42857"
       id="path4870"
       inkscape:connector-curvature="0" />
    <path
       style="fill:none;fill-rule:evenodd;stroke:#000000;stroke-width:1px;stroke-linecap:butt;stroke-linejoin:miter;stroke-opacity:1"
       d="m 479.99969,452.36205 c 8.30062,-2.36576 0.89205,-33.03169 2.85714,-42.85714 0.41765,-2.08823 2.18371,-3.69398 2.85715,-5.71429 0.30117,-0.9035 -0.95239,-2.85714 0,-2.85714 3.5456,0 3.40952,7.58731 5.71428,11.42857 1.38592,2.30987 4.22007,3.47296 5.71429,5.71429 4.04621,6.06933 -6.39565,-0.45424 2.85714,5.71428 1.77192,1.18129 4.20844,1.3513 5.71429,2.85715 1.50584,1.50584 1.67586,3.94236 2.85714,5.71428 0.74711,1.12067 1.65246,2.25481 2.85714,2.85715 0.85184,0.42591 2.85714,-0.95238 2.85714,0 0,0.95238 -3.28306,-0.85184 -2.85714,0 12.7364,25.47278 -1.12782,-21.65413 8.57143,17.14285"
       id="path4872"
       inkscape:connector-curvature="0" />
    <path
       style="fill:none;fill-rule:evenodd;stroke:#000000;stroke-width:1px;stroke-linecap:butt;stroke-linejoin:miter;stroke-opacity:1"
       d="m 199.99969,452.36205 c 20.53121,-4.38036 1.78752,-17.86075 5.71429,-25.71428 0.44134,-0.8827 7.54936,0.51103 8.57142,0 1.20468,-0.60234 1.65247,-2.25481 2.85715,-2.85715 0.85183,-0.42591 2.1837,0.67344 2.85714,0 0.67344,-0.67343 -0.67344,-2.1837 0,-2.85714 0.67344,-0.67343 2.06471,0.52829 2.85714,0 2.24133,-1.49422 3.80953,-3.80952 5.71429,-5.71428 0.95238,-0.95238 1.90476,-3.80953 2.85714,-2.85715 0.95238,0.95238 -4.20401,2.85715 -2.85714,2.85715 2.12959,0 4.533,-1.08522 5.71428,-2.85715 0.22914,-0.3437 -0.21151,-14.28571 0,-14.28571 1.90477,0 -0.70741,3.94576 0,5.71428 1.27531,3.18826 3.80953,5.71429 5.71429,8.57143"
       id="path4874"
       inkscape:connector-curvature="0" />
    <path
       style="fill:none;fill-rule:evenodd;stroke:#000000;stroke-width:1px;stroke-linecap:butt;stroke-linejoin:miter;stroke-opacity:1"
       d="m 279.99969,452.36205 0,-40"
       id="path4878"
       inkscape:connector-curvature="0" />
    <path
       style="fill:none;fill-rule:evenodd;stroke:#000000;stroke-width:1px;stroke-linecap:butt;stroke-linejoin:miter;stroke-opacity:1"
       d="m 319.99969,452.36205 -40,-80"
       id="path4880"
       inkscape:connector-curvature="0" />
    <path
       style="fill:none;fill-rule:evenodd;stroke:#000000;stroke-width:1px;stroke-linecap:butt;stroke-linejoin:miter;stroke-opacity:1"
       d="m 279.99969,452.36205 -40,0"
       id="path4882"
       inkscape:connector-curvature="0" />
    <path
       style="fill:none;fill-rule:evenodd;stroke:#000000;stroke-width:1px;stroke-linecap:butt;stroke-linejoin:miter;stroke-opacity:1"
       d="m 239.99969,412.36205 -40,0"
       id="path4884"
       inkscape:connector-curvature="0" />
    <path
       style="fill:none;fill-rule:evenodd;stroke:#000000;stroke-width:1px;stroke-linecap:butt;stroke-linejoin:miter;stroke-opacity:1"
       d="m 919.99969,212.36205 160.00001,-160 119.9997,-40.000047 -80,279.999937"
       id="path4886"
       inkscape:connector-curvature="0" />
    <path
       style="fill:#cccccc;fill-opacity:0.98000004"
       d="m 1127.6395,440.17009 c -2.0608,-2.48318 -2.4262,-4.95516 -0.8743,-5.91434 1.4666,-0.90638 3.2709,-5.19941 4.0097,-9.54008 0.7388,-4.34066 5.4881,-25.24925 10.554,-46.46354 5.066,-21.21428 10.2623,-50.30632 11.5475,-64.64896 1.5675,-17.4932 4.08,-28.67894 7.6325,-33.98011 2.9128,-4.34642 9.1531,-19.50666 13.8673,-33.68943 7.7167,-23.21535 15.351,-34.71147 19.9783,-30.08421 0.9245,0.92449 -12.9115,52.73477 -30.7467,115.13396 -26.6352,93.18797 -33.0599,112.69101 -35.9683,109.18671 z"
       id="path4888"
       inkscape:connector-curvature="0"
       transform="translate(-3.0517571e-4,-198.4253)" />
    <path
       style="fill:#cccccc;fill-opacity:0.98000004"
       d="M 932.94768,789.53673 C 735.03993,775.44502 525.23422,732.51207 337.23339,667.63462 c -52.5442,-18.13255 -55.95734,-19.71029 -53.95097,-24.93883 2.9828,-7.77303 22.9884,-5.77672 31.23026,3.1164 6.72154,7.25268 7.00642,7.31077 7.00642,1.42857 0,-5.94031 1.10263,-6.13149 35.3658,-6.13149 33.37429,0 35.6312,0.362 40.07926,6.42858 l 4.71346,6.42857 -1.70037,-6.42857 c -1.40446,-5.30992 -0.54526,-6.42858 4.93757,-6.42858 4.63877,0 7.78934,2.6012 10.461,8.63689 3.78874,8.5594 16.04537,17.0774 24.57283,17.0774 5.0716,0 5.79303,-7.95471 1.2956,-14.28571 -2.34432,-3.30009 -2.65026,-2.47875 -1.33037,3.57142 2.38445,10.93 -5.11006,10.44849 -15.81989,-1.01645 -13.65977,-14.62283 -11.60011,-16.84069 15.6394,-16.84069 13.16071,0 28.12106,-0.83848 33.24523,-1.86334 9.0962,-1.81923 9.28591,-1.65377 8.017,6.99197 -0.71483,4.87043 -0.24657,8.20446 1.04046,7.409 1.28708,-0.79546 2.34017,-4.58471 2.34017,-8.42054 0,-5.98529 1.33697,-6.97423 9.42857,-6.97423 5.18571,0 10.97143,-1.54286 12.85714,-3.42857 2.58837,-2.58837 3.42857,-2.60529 3.42857,-0.0691 0,1.84775 2.63406,7.56918 5.85346,12.71429 l 5.85346,9.35477 -1.84509,-10.49763 -1.84506,-10.49763 13.84875,-1.85414 c 38.41711,-5.14337 69.56305,-16.29066 69.56305,-24.89685 0,-4.56175 -23.6184,-13.15019 -48.57142,-17.66221 -45.19512,-8.17219 -95.41092,-11.36964 -181.42858,-11.5523 -72.43497,-0.15381 -86.30371,-0.84598 -89.51897,-4.46772 -3.37237,-3.79878 -3.65154,-3.78409 -2.457,0.12928 1.14223,3.74197 -5.0288,4.92641 -40.48104,7.76977 -23.00578,1.84512 -51.47156,4.83255 -63.25727,6.63874 l -21.42857,3.28397 -21.42857,-12.18652 C 52.405247,532.36825 0.38447067,479.19405 -3.5071965,438.6927 -8.3534547,388.25673 55.836718,350.83148 176.38823,333.80701 c 43.67495,-6.16784 175.52953,-8.62079 237.98802,-4.42739 151.375,10.16316 345.47948,43.39401 471.10094,80.65289 10.8198,3.20911 22.39123,6.17831 25.71429,6.59822 10.2284,1.29248 29.73905,7.15102 81.7562,24.54928 86.84512,29.04722 80.94192,26.5948 177.14282,73.59197 113.4195,55.40895 181.1707,114.12204 187.6785,162.64201 6.9657,51.933 -59.4195,91.33643 -181.9642,108.00617 -41.9586,5.70763 -186.17892,8.15226 -242.85712,4.11657 z M 424.5345,461.02458 c 14.01126,-7.4986 19.17986,-39.12899 8.30186,-50.80513 -8.89588,-9.54863 -23.26631,-8.4263 -32.49186,2.53761 -20.22405,24.03494 -1.25482,61.88518 24.19,48.26752 z"
       id="path4890"
       inkscape:connector-curvature="0"
       transform="translate(-3.0517571e-4,-198.4253)" />
    <path
       style="fill:#cccccc;fill-opacity:0.98000004"
       d=""
       id="path4892"
       inkscape:connector-curvature="0"
       transform="translate(-3.0517571e-4,-198.4253)" />
    <path
       style="fill:#cccccc;fill-opacity:0.98000004"
       d="m 1129.3415,430.83644 c -1.1322,-1.1322 -0.6401,-3.76761 1.0935,-5.85647 1.7336,-2.08886 2.4056,-5.74287 1.4934,-8.12002 -0.9122,-2.37716 -0.2756,-4.3221 1.4146,-4.3221 1.6903,0 2.3932,-1.7719 1.5622,-3.93756 -0.831,-2.16566 -0.3932,-5.05852 0.9731,-6.42857 1.3662,-1.37006 3.1027,-7.63387 3.8587,-13.91959 0.7561,-6.28571 1.6305,-11.42857 1.9431,-11.42857 0.3125,0 0.9634,-2.57143 1.4462,-5.71429 0.4829,-3.14285 1.5307,-8.92857 2.3284,-12.85714 0.7977,-3.92857 3.4957,-20 5.9954,-35.71428 4.1008,-25.77909 15.6492,-63.10485 22.282,-72.0177 1.4106,-1.89545 1.7352,-4.78831 0.7215,-6.42858 -1.0137,-1.64026 -0.7399,-2.9823 0.6086,-2.9823 1.3485,0 4.0334,-4.37375 5.9664,-9.71944 4.107,-11.35772 11.9191,-19.41753 11.9191,-12.29706 0,2.4186 1.6071,5.04595 3.5714,5.83856 2.257,0.91072 1.8452,1.52412 -1.1188,1.66667 -6.0776,0.29228 -9.889,14.51579 -4.7612,17.76793 2.8624,1.81536 2.6448,2.38037 -0.9298,2.41388 -5.632,0.0528 -9.2214,14.75514 -4.3577,17.84986 2.4117,1.53458 2.3217,2.11826 -0.3318,2.15014 -5.5628,0.0668 -10.3443,14.70794 -5.7543,17.62009 2.9519,1.87283 2.9598,2.34483 0.04,2.37991 -5.1414,0.0618 -10.4148,14.67924 -6.229,17.26623 2.2072,1.36413 1.9141,2.47859 -0.9399,3.57378 -4.8799,1.87261 -8.3871,16.3466 -3.9609,16.3466 1.6538,0 0.9968,1.60714 -1.4601,3.57143 -5.5123,4.40712 -8.7195,16.42857 -4.3829,16.42857 1.7246,0 1.1255,1.60714 -1.3313,3.57143 -5.7494,4.59662 -8.4154,15.75756 -4.179,17.49458 2.2082,0.90542 2.0869,1.41316 -0.374,1.56557 -5.6076,0.34729 -10.3145,14.90869 -5.7543,17.8019 2.9519,1.87283 2.9598,2.34483 0.04,2.37991 -5.5629,0.0668 -10.3443,14.70794 -5.7543,17.62009 2.7766,1.76161 2.5344,2.34692 -0.9848,2.37991 -5.632,0.0528 -9.2213,14.75514 -4.3577,17.84986 2.1819,1.38836 1.6871,2.1213 -1.4515,2.15014 -2.6191,0.0241 -5.2173,1.40982 -5.7738,3.07946 -0.5566,1.66965 -1.9383,2.10937 -3.0705,0.97717 z"
       id="path4894"
       inkscape:connector-curvature="0"
       transform="translate(-3.0517571e-4,-198.4253)" />
    <path
       style="fill:#333333;fill-opacity:0.98000004"
       d="m 1087.2334,474.27072 c -22.7053,-10.09602 -157.54286,-56.01859 -164.48146,-56.01859 -2.24949,0 -4.08998,-0.97274 -4.08998,-2.16165 0,-1.18891 36.32143,-38.46223 80.71429,-82.82961 l 80.71425,-80.66794 47.0455,-15.74183 c 25.875,-8.658 48.1403,-15.74183 49.4783,-15.74183 1.338,0 1.6126,2.89286 0.6101,6.42858 -7.431,26.21056 -13.8923,43.84015 -18.4336,50.29618 -3.4142,4.85376 -5.9936,15.23346 -7.204,28.98953 -1.9432,22.08605 -10.8473,66.82864 -21.4045,107.55632 -3.3115,12.77527 -5.7649,24.33706 -5.4521,25.69287 0.3128,1.3558 -0.9321,6.10448 -2.7666,10.55261 -1.8345,4.44814 -4.7661,13.76957 -6.5148,20.71429 -1.7487,6.94472 -3.9911,12.58911 -4.9832,12.54308 -0.992,-0.046 -11.4465,-4.37143 -23.2322,-9.61201 z"
       id="path4896"
       inkscape:connector-curvature="0"
       transform="translate(-3.0517571e-4,-198.4253)" />
    <path
       style="fill:#333333;fill-opacity:0.98000004"
       d="m 904.37625,786.45893 c -163.40295,-14.7188 -337.936,-48.77868 -495.10826,-96.61966 -53.049,-16.14737 -119.11,-39.34668 -123.3096,-43.30391 -1.66677,-1.57054 -0.57106,-4.16037 2.85714,-6.75309 5.1646,-3.90597 5.19386,-4.21202 0.41095,-4.29642 -4.44958,-0.0786 -5.06566,-2.42169 -4.53115,-17.23372 0.43623,-12.0887 1.74395,-17.14286 4.43549,-17.14286 2.31671,0 3.81686,3.2932 3.81686,8.3789 0,5.99993 1.70185,8.91905 5.99402,10.28133 4.77443,1.51535 5.77809,3.7522 4.93269,10.99366 -0.89457,7.66251 0.40851,10.06717 8.29169,15.30143 6.92548,4.59834 9.35302,5.1774 9.35302,2.23106 0,-9.48163 64.04586,-9.31046 74.554,0.19914 5.19652,4.7028 5.446,4.64651 5.446,-1.22852 0,-8.84925 2.58563,-7.75685 15.85852,6.70003 13.90857,15.14935 26.99863,18.0016 26.99863,5.88292 0,-9.90532 -5.143,-11.8522 -6.23412,-2.35992 l -0.90874,7.90569 -11.09523,-10.80952 c -6.1024,-5.94525 -10.25031,-11.65445 -9.2176,-12.68717 1.03269,-1.03271 15.02554,-2.80803 31.09523,-3.94517 l 29.2176,-2.06754 -30.61609,0.71006 c -31.29854,0.72588 -36.52677,-0.75463 -36.52677,-10.34352 0,-2.82857 -1.28571,-5.14286 -2.85714,-5.14286 -1.57143,0 -2.85714,-1.7286 -2.85714,-3.84131 0,-5.08766 -12.09977,-19.01583 -16.51955,-19.01583 -4.27971,0 -4.84877,27.38852 -0.62331,30 1.57143,0.9712 2.85714,3.61852 2.85714,5.88292 0,3.37334 -6.7032,4.11708 -37.10694,4.11708 l -37.10694,0 -10.03592,-19.92868 c -5.51974,-10.96076 -10.03591,-21.33831 -10.03591,-23.06122 0,-1.7229 -1.92857,-5.06112 -4.28572,-7.41826 -2.35714,-2.35714 -4.28571,-5.47959 -4.28571,-6.93878 0,-1.54998 31.18317,-2.90339 75,-3.25514 l 75,-0.60208 -75.71429,-1.54078 c -41.64285,-0.84742 -77.21162,-2.51307 -79.04168,-3.70143 -1.83006,-1.18836 -3.75966,-0.86387 -4.28799,0.7211 -0.52832,1.58497 -10.60242,4.04285 -22.38689,5.46194 l -21.42629,2.58018 23.97877,-0.16329 c 23.2966,-0.15862 24.09528,0.0591 28.07437,7.65346 3.66886,7.00224 3.58017,8.19366 -0.85106,11.43384 -3.33071,2.4355 -5.38674,8.92382 -6.2938,19.86197 l -1.34716,16.24489 -26.06627,-0.81672 c -26.06247,-0.8166 -26.06641,-0.81786 -26.96802,-8.64971 -0.7235,-6.2848 0.68829,-8.5168 7.14286,-11.2928 4.42453,-1.90289 8.38902,-3.65103 8.80998,-3.88477 0.42096,-0.23372 -1.17826,-4.15198 -3.55383,-8.7072 l -4.31921,-8.28223 -0.0177,7.85714 c -0.0112,5.07154 -1.5369,7.85714 -4.3032,7.85714 -2.38095,0 -4.28571,-2.53968 -4.28571,-5.71428 0,-7.81875 -8.11751,-7.1906 -17.85715,1.38181 -5.34027,4.70027 -7.85714,9.7051 -7.85714,15.62399 0,7.33765 -1.10225,8.70848 -7.00222,8.70848 -21.49333,0 -67.28349,-14.91851 -67.28349,-21.92107 0,-9.18818 29.13235,-16.308 101.42857,-24.7887 6.71978,-0.78826 6.10256,-1.08595 -2.85714,-1.37802 -6.28572,-0.20488 -24.28572,1.46499 -40,3.71086 l -28.57143,4.08339 -20,-11.72843 C 48.527178,527.315 -1.3380388,474.84193 -1.3380388,434.84687 c 0,-18.95927 5.2762423,-30.05612 21.2859408,-44.76803 23.281119,-21.39389 82.043658,-44.28726 130.007858,-50.64994 7.93127,-1.05212 14.42049,-2.77485 14.42049,-3.82828 0,-1.05344 4.5,-1.38999 10,-0.7479 5.5,0.6421 10,0.0408 10,-1.33615 0,-1.37819 51.69434,-2.87565 115,-3.33128 63.25,-0.45522 117.411,-1.53558 120.3578,-2.4008 3.47068,-1.01904 4.66923,-0.45898 3.4028,1.59012 -1.32523,2.14425 2.47114,3.1713 11.78505,3.18826 39.87695,0.0726 191.92195,21.02825 281.59166,38.81041 20.03266,3.97262 37.60143,6.49466 39.04169,5.60453 1.44025,-0.89014 3.0518,-0.319 3.5812,1.26919 0.5294,1.58819 6.41825,3.20334 13.08637,3.58923 6.66808,0.38589 12.13048,1.74672 12.13863,3.02407 0.009,1.27735 2.2648,2.04403 5.0148,1.70375 2.75,-0.34029 7.01428,0.26886 9.47617,1.35364 2.46188,1.08479 8.2476,2.24667 12.85714,2.58196 4.60954,0.3353 9.07394,1.53222 9.92092,2.65984 0.84697,1.12762 5.98982,2.41334 11.42857,2.85714 5.43874,0.44381 10.62845,1.80536 11.53271,3.02567 0.90426,1.22031 5.72314,2.50603 10.7086,2.85715 4.98549,0.35112 9.06709,1.75264 9.0702,3.11448 0.003,1.36186 2.51546,1.81977 5.58297,1.0176 3.06752,-0.80217 6.01743,-0.13812 6.55535,1.47567 0.53794,1.61379 5.09665,3.08444 10.13048,3.26812 5.03383,0.18368 9.15537,1.44819 9.15894,2.81004 0.003,1.36185 2.57795,1.80365 5.7208,0.98177 3.14286,-0.82187 5.71429,-0.32897 5.71429,1.09534 0,1.42432 2.75854,2.58966 6.13009,2.58966 9.10794,0 154.66902,49.21252 180.29852,60.95684 12.1785,5.58065 22.1625,9.25549 22.1866,8.16632 0.023,-1.08916 0.9883,-0.54081 2.1428,1.21856 1.1545,1.75937 20.742,12.2372 43.5277,23.28405 124.5514,60.3844 194.2857,121.88097 194.2857,171.33475 0,25.4354 -13.1912,44.11077 -43.8469,62.07625 -34.0311,19.94352 -102.124,36.63537 -169.17,41.46926 -47.0147,3.38963 -199.5848,3.19814 -238.41165,-0.29923 z M 492.4225,636.58062 c 13.22709,-2.90737 13.70069,-3.58495 2.66803,-3.8172 l -10.71428,-0.22557 0,-13.29998 c 0,-13.11898 0.0777,-13.22958 5.71428,-8.1286 3.14286,2.84426 5.71429,6.59138 5.71429,8.32698 0,1.7356 2.54123,4.74265 5.6472,6.68234 3.10594,1.93971 8.27494,8.67754 11.48663,14.973 7.13128,13.97846 9.84165,14.6108 7.76463,1.81154 l -1.56349,-9.63468 15.96763,-1.87669 c 17.57683,-2.06583 41.50271,-7.5724 39.89354,-9.18157 -0.56251,-0.56252 -11.01057,0.88823 -23.21791,3.22388 -12.20737,2.33563 -26.26066,4.20386 -31.22957,4.15158 -9.13938,-0.0962 -21.89152,-8.21312 -21.89152,-13.93435 0,-1.7124 -1.26123,-3.11345 -2.80271,-3.11345 -1.54149,0 -3.60943,-3.21429 -4.59546,-7.14286 -2.22951,-8.8831 -6.33446,-9.24338 -8.1382,-0.71429 -2.72269,12.87435 -4.23774,44.27446 -2.23457,46.31269 1.13114,1.15097 2.46317,-1.24183 2.96006,-5.31732 0.65474,-5.37065 3.01374,-7.87385 8.57142,-9.09545 z m 106.29678,-33.97373 c -1.98778,-2.39512 -4.74243,-4.35476 -6.12143,-4.35476 -1.37903,0 -0.25743,2.35714 2.49268,5.2381 5.89226,6.17285 8.88103,5.4453 3.62875,-0.88334 z m -24.34303,-10.06904 c -3.14286,-1.35054 -8.28572,-2.41772 -11.42857,-2.37153 -4.59369,0.0675 -4.31352,0.53259 1.42857,2.37153 9.76905,3.1286 17.28063,3.1286 10,0 z m -19.01452,-4.25263 c -2.59631,-2.59631 -75.10543,-10.03595 -93.82511,-9.62672 -14.3966,0.31471 -11.17872,0.95104 14.2682,2.82149 18.07143,1.32831 40.57143,3.5601 50,4.95951 20.62368,3.06103 31.44814,3.73697 29.55691,1.84572 z M 430.1273,456.78443 c 9.84243,-10.47679 11.7048,-38.2193 3.1406,-46.78349 -9.18974,-9.18975 -23.80017,-8.08621 -32.68134,2.46846 -3.93514,4.67665 -8.00237,12.36204 -9.03831,17.07866 -5.76235,26.23579 21.46243,45.45617 38.57905,27.23637 z"
       id="path4898"
       inkscape:connector-curvature="0"
       transform="translate(-3.0517571e-4,-198.4253)" />
    <path
       style="fill:#333333;fill-opacity:0.98000004"
       d="m 957.23339,902.27141 c -6.28571,-0.60516 -28.14286,-2.47537 -48.57143,-4.15603 C 710.29408,881.79559 481.5539,820.09155 320.927,739.57032 253.41267,705.72583 199.52086,670.52337 161.5191,635.44412 c -10.88625,-10.04905 -11.7622,-11.59494 -5.71428,-10.08467 3.92857,0.98104 15.17857,2.53068 25,3.44365 l 17.85714,1.65995 0,11.34308 c 0,9.16957 0.86599,11.01077 4.51939,9.60883 2.48567,-0.95384 5.0571,-1.73426 5.71429,-1.73426 0.65719,0 1.19489,-3.85714 1.19489,-8.57143 0,-11.8756 7.69913,-11.26538 20.15381,1.59736 l 9.84619,10.16879 24.28572,-0.48512 c 22.69444,-0.45333 26.97945,0.48898 65.3971,14.38135 236.81078,85.63419 559.05064,138.2372 773.52335,126.27134 33.9681,-1.89515 62.9374,-4.17326 64.3762,-5.06247 1.4387,-0.88921 9.9641,-2.13213 18.9453,-2.76205 23.4154,-1.64229 72.4545,-13.4214 99.8333,-23.97977 28.9635,-11.16954 55.0643,-29.94519 64.8569,-46.65492 6.1787,-10.54326 7.0735,-14.72034 5.5438,-25.88061 -1.1188,-8.16232 -0.7224,-13.30818 1.0252,-13.30818 1.5671,0 2.3669,3.53571 1.7773,7.85714 -0.8395,6.1535 -0.5561,6.67461 1.3071,2.40332 2.2001,-5.04372 2.8201,-4.82888 8.2446,2.85714 10.9692,15.54237 20.3442,37.02844 23.7828,54.50652 14.929,75.88244 -66.1329,131.80005 -223.1128,153.90624 -30.9994,4.36539 -183.10772,8.18955 -212.64301,5.34606 z"
       id="path4900"
       inkscape:connector-curvature="0"
       transform="translate(-3.0517571e-4,-198.4253)" />
    <path
       style="fill:#333333;fill-opacity:0.98000004"
       d="M 902.94768,896.5763 C 609.5039,868.10896 301.25533,760.00805 167.06108,638.5053 l -12.68483,-11.48517 18.57143,1.23646 18.57142,1.23643 -15.20112,-2.76875 c -21.66754,-3.94654 -47.65602,-14.80084 -47.65602,-19.90392 0,-5.98399 16.72733,-10.83095 60,-17.38578 20.42857,-3.09446 38.42857,-6.24398 40,-6.99894 3.09694,-1.48785 -36.01159,0.47705 -61.42857,3.08631 -15.49621,1.59081 -16.13262,1.34985 -45.85853,-17.36304 C 62.841404,531.31126 22.253936,493.56615 6.7693644,461.5793 -0.52820505,446.50453 -1.2402665,423.30439 5.2116898,410.82769 22.472484,377.44899 95.634904,345.9283 180.09053,335.48432 c 32.0295,-3.96084 228.87469,-6.4581 251.52392,-3.19093 10.94757,1.57919 35.33323,4.29579 54.19037,6.03689 60.3096,5.56844 223.38777,30.73048 278.57143,42.98199 20.13028,4.46919 82.6962,19.71866 99.29865,24.20251 38.75335,10.46616 46.29195,12.5555 64.98706,18.01134 32.94349,9.61396 137.02004,45.54502 163.69394,56.51319 54.2055,22.28898 151.2935,75.73699 188.4918,103.76671 104.9374,79.07271 96.1405,146.69337 -23.6168,181.54017 -59.6876,17.3678 -78.2279,19.19286 -209.8654,20.65848 -79.51305,0.88529 -132.66045,0.23058 -154.28574,-1.90071 -139.17677,-13.7164 -283.53634,-40.37383 -420.13208,-77.5816 -80.49266,-21.92566 -185.71429,-57.18643 -185.71429,-62.23463 0,-1.11957 1.54286,-3.57846 3.42857,-5.46417 2.66666,-2.66666 2.66666,-3.42857 0,-3.42857 -2.25548,0 -3.42857,-5.43429 -3.42857,-15.88292 0,-9.86104 1.08326,-15.2134 2.85714,-14.11708 1.57143,0.9712 2.85715,4.30171 2.85715,7.40114 0,3.09943 1.92857,6.3754 4.28571,7.27992 2.42429,0.93028 4.28571,5.18634 4.28571,9.79902 0,9.78383 10.58552,20.90752 17.04255,17.909 2.41231,-1.12025 17.52125,-2.55328 33.57545,-3.18454 22.71626,-0.8932 31.20895,-0.14028 38.29609,3.39529 11.12646,5.55063 11.08591,5.54968 11.08591,0.25743 0,-6.50832 3.78569,-5.18975 13.03689,4.5408 9.78394,10.29088 23.07503,17.86217 27.04703,15.40734 3.5496,-2.19377 3.64537,-18.51957 0.10857,-18.51957 -1.46554,0 -3.51909,2.69223 -4.56346,5.98274 -1.85234,5.83623 -2.10197,5.78814 -10.19254,-1.96311 -4.56146,-4.37035 -8.29363,-8.87118 -8.29363,-10.00195 0,-1.13077 12.53572,-3.14023 27.85714,-4.46545 l 27.85715,-2.40949 -29.58629,-1.42857 -29.58628,-1.42857 -6.60586,-12.37092 c -8.21203,-15.37881 -15.27863,-23.34337 -20.71152,-23.34337 -3.34782,0 -3.94562,3.61395 -3.01511,18.2272 l 1.1606,18.2272 -16.96117,1.7728 c -9.32866,0.97503 -24.89106,1.7728 -34.58317,1.7728 l -17.62197,0 -13.25989,-27.74662 c -7.29297,-15.26064 -12.72669,-28.27985 -12.07494,-28.93158 0.65171,-0.65174 31.77288,-2.00708 69.15814,-3.01187 l 67.97317,-1.82689 -70,-2.60158 c -83.09998,-3.08843 -76.148,-3.23341 -102.85714,2.14495 l -21.42857,4.31502 21.93877,0.25786 c 28.37448,0.3335 37.17103,7.46512 26.5418,21.51823 -2.30717,3.05034 -4.21455,10.12177 -4.23861,15.71428 -0.024,5.59252 -0.98835,11.51589 -2.14286,13.16309 -1.29236,1.84385 -11.15828,2.55114 -25.67053,1.84031 -22.69971,-1.11186 -23.57143,-1.40977 -23.57143,-8.05611 0,-4.58906 2.39337,-7.99209 7.14286,-10.15609 8.13348,-3.70587 8.62072,-6.54066 2.85714,-16.623 -3.94484,-6.90077 -4.08666,-6.93069 -4.18447,-0.8829 -0.1338,8.27315 -4.75414,10.84355 -8.25305,4.59134 -4.03942,-7.21805 -17.64396,-1.76946 -22.93751,9.18642 -2.26778,4.69354 -5.37558,11.04674 -6.90622,14.11826 -1.92285,3.85851 -1.77962,5.91897 0.46342,6.66665 1.78552,0.59517 3.2464,5.56926 3.2464,11.05355 0,7.95482 1.01117,9.77868 5,9.01842 2.75,-0.52414 5.42116,-3.91131 5.9359,-7.52705 1.48631,-10.44043 8.5053,-10.7444 18.7528,-0.81212 8.87819,8.60509 10.50016,9.05932 34.81168,9.74955 23.32294,0.66214 31.47496,2.714 95.49962,24.03731 170.01317,56.6226 339.51352,92.30451 528.57143,111.27083 72.39329,7.26251 231.93591,7.2196 285.71431,-0.0769 50.9417,-6.9116 98.8095,-19.34406 127.9622,-33.23503 29.7258,-14.164 53.4919,-36.54623 56.4875,-53.1982 3.2988,-18.33791 5.3358,-20.00683 12.3672,-10.13217 20.4094,28.66234 28.0316,67.2008 18.8042,95.07554 -7.1283,21.53386 -34.7844,48.66915 -66.023,64.77972 -48.1412,24.82763 -118.3565,41.91214 -190.5117,46.35451 -61.2803,3.77283 -181.8268,2.87115 -229.08642,-1.71357 l 0,-3e-5 z M 485.4237,645.89627 c 1.11383,-4.43782 4.97375,-7.65648 11.63295,-9.70022 9.63837,-2.95812 10.1762,-2.71629 16.35797,7.35585 l 6.39194,10.41452 1.57057,-9.88246 1.57055,-9.88249 24.20122,-3.74734 c 13.31069,-2.06103 25.52498,-5.17423 27.14286,-6.9182 2.13869,-2.30534 -0.178,-2.64394 -8.48694,-1.24046 -6.28572,1.06175 -21.30314,2.69249 -33.37209,3.62386 l -21.94348,1.69343 -8.78543,-9.6188 c -4.832,-5.29037 -9.5308,-11.96728 -10.44183,-14.83761 -2.6464,-8.33807 -8.12091,-3.97879 -10.2822,8.18758 -4.6036,25.91494 -0.80366,55.46037 4.44391,34.55234 z m 115.10946,-43.2352 c -0.93051,-2.42492 -3.86006,-4.40894 -6.51006,-4.40894 -4.39688,0 -4.36462,0.50121 0.369,5.7318 5.68469,6.2815 8.80149,5.6101 6.14106,-1.32286 z m -24.72834,-10.12322 c -2.35714,-1.52331 -7.5,-2.76964 -11.42857,-2.76964 -5.65412,0 -6.2496,0.57726 -2.85715,2.76964 2.35715,1.5233 7.5,2.76964 11.42858,2.76964 5.65411,0 6.2496,-0.57726 2.85714,-2.76964 z m -24.34434,-5.56078 c -8.38898,-3.40247 -61.50035,-8.78945 -82.19629,-8.337 l -17.74509,0.38794 18.57143,2.41522 c 60.99537,7.93245 92.57989,10.08047 81.36995,5.53384 z M 423.60999,462.2198 c 8.75289,-1.638 14.1862,-13.76345 14.72166,-32.85405 0.52257,-18.63172 -3.29235,-23.47882 -19.2842,-24.50188 -24.622,-1.57514 -38.70263,35.07111 -20.47795,53.29581 5.35443,5.35443 12.19623,6.46378 25.04049,4.06012 z"
       id="path4902"
       inkscape:connector-curvature="0"
       transform="translate(-3.0517571e-4,-198.4253)" />
    <path
       style="fill:#333333;fill-opacity:0.98000004"
       d=""
       id="path4904"
       inkscape:connector-curvature="0"
       transform="translate(-3.0517571e-4,-198.4253)" />
    <path
       style="fill:#333333;fill-opacity:0.98000004"
       d=""
       id="path4906"
       inkscape:connector-curvature="0"
       transform="translate(-3.0517571e-4,-198.4253)" />
    <path
       style="fill:#333333;fill-opacity:0.98000004"
       d=""
       id="path4908"
       inkscape:connector-curvature="0"
       transform="translate(-3.0517571e-4,-198.4253)" />
    <path
       style="fill:#333333;fill-opacity:0.98000004"
       d="m 1129.3415,430.83644 c -1.1322,-1.1322 -0.826,-3.54363 0.6804,-5.35875 1.5064,-1.81511 3.3123,-7.71912 4.013,-13.12002 0.7008,-5.4009 1.9677,-11.7484 2.8154,-14.10554 0.8478,-2.35714 2.1767,-8.14286 2.9532,-12.85714 0.7765,-4.71429 2.1707,-12.42857 3.0982,-17.14286 6.768,-34.39879 12.9546,-69.97005 12.511,-71.93506 -0.2918,-1.29286 0.8316,-5.56494 2.4966,-9.49351 6.6931,-15.79268 15.6768,-38.73821 16.2203,-41.42857 1.0821,-5.35633 13.0129,-26.74947 15.9201,-28.5462 1.5939,-0.98507 2.898,0.21341 2.898,2.66329 0,2.44989 1.5314,4.45434 3.4032,4.45434 2.0248,0 1.5631,1.44651 -1.1401,3.57143 -6.1313,4.81974 -9.4996,16.42857 -4.7667,16.42857 2.0687,0 1.3661,1.63038 -1.6545,3.83908 -3.6088,2.63877 -4.8052,6.16721 -3.8268,11.28543 0.9399,4.91691 0,7.99142 -2.7581,9.05097 -2.7991,1.0741 -3.7726,4.39143 -2.9445,10.03353 0.8183,5.57592 -0.1487,8.96067 -2.8572,10 -2.6492,1.01658 -3.678,4.4074 -2.9148,9.60709 0.6737,4.59005 -0.5279,9.63086 -2.802,11.75524 -2.1898,2.04558 -3.4464,6.51836 -2.7924,9.93951 0.654,3.42114 -0.6317,7.92114 -2.8572,10 -2.2254,2.07885 -3.5111,6.57885 -2.8571,10 0.654,3.42114 -0.6317,7.92114 -2.8571,10 -2.2255,2.07885 -3.4751,6.76779 -2.7769,10.41987 0.7873,4.1187 -0.3185,7.24945 -2.9123,8.24476 -2.799,1.0741 -3.7726,4.39143 -2.9445,10.03353 0.8184,5.57592 -0.1487,8.96067 -2.8571,10 -2.724,1.04529 -3.6748,4.42873 -2.8411,10.10962 0.6893,4.69618 0.1487,8.53851 -1.2012,8.53851 -4.1734,0 -7.5722,12.55209 -4.4485,16.42857 2.0603,2.55676 1.6286,3.57143 -1.5195,3.57143 -2.4186,0 -4.8528,1.36607 -5.4093,3.03571 -0.5566,1.66965 -1.9383,2.10937 -3.0705,0.97717 z"
       id="path4910"
       inkscape:connector-curvature="0"
       transform="translate(-3.0517571e-4,-198.4253)" />
    <path
       style="fill:#333333;fill-opacity:0.98000004"
       d=""
       id="path4912"
       inkscape:connector-curvature="0"
       transform="translate(-3.0517571e-4,-198.4253)" />
    <path
       style="fill:#333333;fill-opacity:0.98000004"
       d="m 1129.3912,439.6807 c -0.7509,-3.92857 -0.4079,-7.14285 0.7625,-7.14285 1.1703,0 2.7423,3.21428 3.4933,7.14285 0.751,3.92857 0.4079,7.14286 -0.7625,7.14286 -1.1703,0 -2.7423,-3.21429 -3.4933,-7.14286 z"
       id="path4914"
       inkscape:connector-curvature="0"
       transform="translate(-3.0517571e-4,-198.4253)" />
    <path
       style="fill:#333333;fill-opacity:0.98000004"
       d=""
       id="path4916"
       inkscape:connector-curvature="0"
       transform="translate(-3.0517571e-4,-198.4253)" />
    <path
       style="fill:#333333;fill-opacity:0.98000004"
       d=""
       id="path4918"
       inkscape:connector-curvature="0"
       transform="translate(-3.0517571e-4,-198.4253)" />
    <path
       style="fill:#333333;fill-opacity:0.98000004"
       d=""
       id="path4920"
       inkscape:connector-curvature="0"
       transform="translate(-3.0517571e-4,-198.4253)" />
    <path
       style="fill:#333333;fill-opacity:0.98000004"
       d=""
       id="path4922"
       inkscape:connector-curvature="0"
       transform="translate(-3.0517571e-4,-198.4253)" />
    <path
       style="fill:#333333;fill-opacity:0.98000004"
       d=""
       id="path4924"
       inkscape:connector-curvature="0"
       transform="translate(-3.0517571e-4,-198.4253)" />
    <path
       style="fill:#333333;fill-opacity:0.98000004"
       d="m 1084.365,472.32978 c -14.9224,-6.05806 -57.6124,-21.02526 -94.86665,-33.26044 -37.25427,-12.23518 -67.46403,-23.22364 -67.1328,-24.4188 0.33123,-1.19515 35.43366,-37.83801 78.00545,-81.42857 l 77.4031,-79.25555 47.4807,-15.58225 c 26.1144,-8.57024 48.3773,-14.68567 49.4732,-13.58985 2.532,2.53204 -2.9119,21.05335 -13.1933,44.88638 -4.7978,11.12172 -9.9324,31.17863 -12.8,50 -4.6812,30.72456 -22.4646,111.17296 -32.2998,146.11759 l -4.9384,17.54615 -27.1315,-11.01466 z"
       id="path4926"
       inkscape:connector-curvature="0"
       transform="translate(-3.0517571e-4,-198.4253)" />
    <path
       style="fill:#333333;fill-opacity:0.98000004"
       d="m 1075.8048,469.55899 c -14.9286,-6.0301 -55.6901,-20.36242 -90.58118,-31.84962 -34.89109,-11.4872 -63.1768,-21.83778 -62.85714,-23.00131 0.31966,-1.16352 35.42401,-37.80638 78.00962,-81.42857 l 77.4285,-79.31307 45.5233,-15 c 25.0378,-8.25 47.19,-15 49.2271,-15 4.9755,0 2.2909,11.97143 -9.6109,42.85714 -5.1472,13.35714 -11.5621,37.78571 -14.2554,54.28571 -5.5897,34.24447 -21.2961,105.12401 -30.5481,137.85715 -4.4904,15.88681 -7.5208,22.06001 -10.7258,21.84961 -2.4569,-0.16128 -16.6814,-5.22695 -31.61,-11.25704 z"
       id="path4928"
       inkscape:connector-curvature="0"
       transform="translate(-3.0517571e-4,-198.4253)" />
    <path
       style="fill:#333333;fill-opacity:0.98000004"
       d="m 1072.6168,468.64422 c -16.6819,-6.50136 -57.4446,-20.82066 -90.58356,-31.82066 -33.13901,-11 -60.31156,-20.7053 -60.38344,-21.56733 -0.0719,-0.86203 35.03355,-37.50489 78.01207,-81.42857 l 78.14273,-79.86124 47.4655,-15.58225 c 26.106,-8.57024 48.471,-14.57669 49.7,-13.34767 1.2291,1.22902 -2.0613,14.02675 -7.3118,28.43939 -10.4712,28.74359 -13.6938,41.61828 -24.7953,99.06196 -6.1867,32.01262 -21.1802,95.7304 -28.7414,122.14285 -2.4101,8.41871 -5.607,7.95375 -41.5048,-6.03648 z"
       id="path4930"
       inkscape:connector-curvature="0"
       transform="translate(-3.0517571e-4,-198.4253)" />
    <path
       style="fill:#333333;fill-opacity:0.98000004"
       d="m 1070.3013,468.08374 c -17.9555,-6.92914 -58.7769,-21.27384 -90.71427,-31.87711 -31.93736,-10.60327 -58.06793,-20.05138 -58.06793,-20.99581 0,-0.94443 34.94924,-37.61077 77.66498,-81.48077 l 77.66502,-79.76363 48.0016,-15.5239 c 26.4008,-8.53814 48.9843,-14.54118 50.1854,-13.34009 1.2011,1.2011 -3.1714,17.82971 -9.7166,36.95247 -6.5451,19.12276 -14.0207,46.98295 -16.6123,61.91152 -6.1717,35.55156 -22.8933,110.24817 -30.541,136.42857 -4.3393,14.85463 -7.3476,20.65388 -10.6347,20.50073 -2.5211,-0.11745 -19.2747,-5.88285 -37.2302,-12.81198 z"
       id="path4932"
       inkscape:connector-curvature="0"
       transform="translate(-3.0517571e-4,-198.4253)" />
    <path
       style="fill:#333333;fill-opacity:0.98000004"
       d="m 1081.5191,472.27531 c -11.7857,-4.67491 -52.2857,-18.95684 -90,-31.73761 -37.71428,-12.78078 -69.08733,-23.64657 -69.71787,-24.14622 -1.61496,-1.27968 17.21919,-21.34961 91.20677,-97.19116 l 64.5765,-66.19467 47.6056,-15.07185 c 26.183,-8.28951 48.5806,-14.0967 49.7725,-12.90487 1.1918,1.19184 -2.0391,14.46096 -7.1798,29.48694 -5.1407,15.02598 -8.8454,27.82121 -8.2328,28.43385 0.6127,0.61265 5.3075,-9.73315 10.4329,-22.99067 11.8966,-30.7719 19.7484,-44.05404 22.9654,-38.84875 1.4118,2.28433 0.612,6.48279 -1.9922,10.4572 -2.393,3.65229 -3.6229,8.53784 -2.7331,10.85679 0.8899,2.31895 0.3884,4.97618 -1.1144,5.90496 -1.5028,0.92878 -2.7324,5.46996 -2.7324,10.0915 0,4.62155 -1.2857,8.40281 -2.8571,8.40281 -1.5714,0 -2.8571,4.5 -2.8571,10 0,5.5 -1.1451,10 -2.5446,10 -1.3995,0 -3.3281,4.5 -4.2857,10 -0.9576,5.5 -2.5261,14.51192 -3.4854,20.02648 -0.9594,5.51457 -2.8879,10.7333 -4.2857,11.59719 -1.3978,0.86389 -2.5415,5.2761 -2.5415,9.8049 0,4.5288 -1.2857,9.0288 -2.8571,10 -1.5715,0.9712 -2.8572,5.54708 -2.8572,10.16862 0,4.62155 -1.2857,8.40281 -2.8571,8.40281 -1.5715,0 -2.8572,4.5 -2.8572,10 0,5.5 -1.2857,10 -2.8571,10 -1.5714,0 -2.8572,4.5 -2.8572,10 0,5.5 -1.2857,10 -2.8571,10 -1.5714,0 -2.9586,2.25 -3.0827,5 -0.1241,2.75 -0.7988,3.61853 -1.4995,1.93008 -0.7007,-1.68846 2.5332,-22.25989 7.1864,-45.71429 4.6532,-23.4544 9.1724,-49.71579 10.0427,-58.35865 0.8704,-8.64285 -2.7946,5.5 -8.1443,31.42857 -20.7005,100.33076 -31.6426,140.08251 -38.4902,139.83294 -2.5211,-0.0919 -14.2267,-3.99198 -26.0124,-8.6669 z"
       id="path4934"
       inkscape:connector-curvature="0"
       transform="translate(-3.0517571e-4,-198.4253)" />
    <path
       style="fill:#666666;fill-opacity:0.98000004"
       d="m 1077.2334,470.99615 c -14.1429,-5.41815 -54.6429,-19.72499 -90.00001,-31.79298 -35.35714,-12.068 -64.79513,-22.33545 -65.41775,-22.81656 -1.62691,-1.25714 15.35775,-19.47455 89.10866,-95.57614 l 65.3584,-67.44167 46.1896,-14.70465 c 25.4043,-8.08756 47.7968,-14.7031 49.7611,-14.7012 5.2294,0.005 4.5092,4.72861 -5.0181,32.91418 -10.3669,30.6692 -7.2256,28.81961 5.4475,-3.2075 11.0115,-27.82797 17.1703,-37.59989 20.4019,-32.37105 1.2666,2.04949 0.3491,6.51806 -2.1086,10.26892 -2.393,3.65229 -3.6229,8.53784 -2.7331,10.85679 0.8899,2.31895 0.3884,4.97618 -1.1144,5.90496 -1.5028,0.92878 -2.7324,5.39408 -2.7324,9.92288 0,4.5288 -1.2857,9.0288 -2.8571,10 -1.5714,0.9712 -2.8571,5.4712 -2.8571,10 0,4.5288 -1.0409,8.87746 -2.313,9.66368 -1.2721,0.78623 -4.0885,9.93757 -6.2585,20.33632 -2.17,10.39875 -4.9863,19.5501 -6.2584,20.33632 -1.2722,0.78622 -2.313,5.13488 -2.313,9.66368 0,4.5288 -1.2857,9.0288 -2.8571,10 -1.5715,0.9712 -2.8572,5.4712 -2.8572,10 0,4.5288 -1.2857,9.0288 -2.8571,10 -1.5715,0.9712 -2.8572,5.4712 -2.8572,10 0,4.5288 -1.2857,9.0288 -2.8571,10 -1.5714,0.9712 -2.8572,5.54708 -2.8572,10.16862 0,4.62155 -1.2857,8.40281 -2.8571,8.40281 -1.5714,0 -2.9586,2.25 -3.0827,5 -0.1241,2.75 -0.8096,3.58625 -1.5234,1.85833 -0.7138,-1.72792 1.8531,-19.08507 5.7043,-38.57143 3.8512,-19.48637 7.695,-41.85833 8.5416,-49.71547 l 1.5394,-14.28572 -3.0038,14.28572 c -24.2943,115.53816 -35.1625,155.77367 -42.0251,155.58331 -2.597,-0.072 -16.2932,-4.56401 -30.436,-9.98215 z"
       id="path4936"
       inkscape:connector-curvature="0"
       transform="translate(-3.0517571e-4,-198.4253)" />
    <path
       style="fill:#666666;fill-opacity:0.98000004"
       d="M 903.3551,896.65919 C 613.05153,869.14067 295.95933,757.9895 167.23339,638.62445 l -12.85714,-11.92218 14.28571,1.50512 c 14.17534,1.49348 14.13469,1.46037 -5.26007,-4.2862 -52.91696,-15.67896 -47.27166,-23.4303 25.15828,-34.54385 54.46751,-8.35742 50.18792,-11.50347 -6.82876,-5.02002 l -28.56394,3.24805 -19.39561,-11.53181 C 42.920441,522.05713 -7.7868299,463.79915 1.234395,423.80021 4.4499721,409.54276 8.2733524,403.41591 21.298004,391.64893 43.096933,371.9549 83.041578,355.11372 138.56964,342.20567 c 27.56701,-6.40823 39.68303,-7.25783 144.37804,-10.12408 87.38511,-2.39236 122.69214,-2.32221 150,0.29804 150.7382,14.46365 314.81768,41.87192 420,70.15789 14.92857,4.01464 38.71428,10.4081 52.85714,14.20769 32.78243,8.80725 155.30878,50.3 187.14288,63.3747 54.4313,22.35573 149.875,75.03343 188.0017,103.76277 104.83,78.99174 95.989,146.63122 -23.7185,181.46351 -59.7787,17.39431 -78.1654,19.19948 -210.3593,20.65268 -99.07132,1.08909 -130.25038,0.47538 -167.14281,-3.28985 -133.02263,-13.57623 -283.01957,-41.79657 -412.4954,-77.60666 -79.50954,-21.99054 -180,-55.91846 -180,-60.7722 0,-1.14291 1.54286,-3.62089 3.42857,-5.5066 2.66666,-2.66666 2.66666,-3.42857 0,-3.42857 -2.25548,0 -3.42857,-5.43429 -3.42857,-15.88292 0,-9.86104 1.08326,-15.2134 2.85714,-14.11708 1.57143,0.9712 2.85715,4.30171 2.85715,7.40114 0,3.09943 1.92857,6.3754 4.28571,7.27992 2.35714,0.90454 4.28571,5.14005 4.28571,9.41228 0,4.45837 2.85952,10.45412 6.71186,14.0732 5.63323,5.29214 7.95892,5.83134 14.47172,3.35517 11.7288,-4.45928 57.27014,-3.67305 68.9082,1.18963 8.65222,3.61514 9.90822,3.61514 9.90822,0 0,-6.36297 3.84618,-4.98034 13.03689,4.6866 9.71489,10.21826 21.11791,16.66032 26.24883,14.82909 4.10168,-1.46389 4.93451,-17.94132 0.90683,-17.94132 -1.46555,0 -3.51909,2.69223 -4.56346,5.98275 -1.85234,5.83622 -2.10197,5.78814 -10.19254,-1.96312 -4.56152,-4.37023 -8.29369,-8.8572 -8.29369,-9.97108 0,-1.11389 10.60714,-3.12332 23.57143,-4.46546 l 23.57143,-2.44023 -25.5066,-1.42857 -25.5066,-1.42857 -7.35054,-13.22275 c -9.50283,-17.09444 -14.18692,-22.49154 -19.52015,-22.49154 -3.56603,0 -4.06931,3.21057 -2.86168,18.25512 l 1.46534,18.25508 -10.35989,1.71346 c -5.69794,0.9424 -21.37122,1.7276 -34.82957,1.74488 l -24.46965,0.0314 -13.25989,-27.74662 c -7.29297,-15.26064 -12.7226,-28.28393 -12.06589,-28.94065 0.65672,-0.65671 29.20646,-2.02804 63.44386,-3.04738 l 62.24983,-1.85333 -67.44006,-2.39987 c -55.83314,-1.98682 -71.32275,-1.65387 -89.99999,1.93461 l -22.55995,4.33447 20.5102,0.28797 c 26.88943,0.37754 35.52291,7.78549 25.11323,21.54835 -2.30717,3.05034 -4.21455,10.12177 -4.23861,15.71428 -0.024,5.59252 -0.98835,11.51589 -2.14286,13.16309 -1.29236,1.84385 -11.15828,2.55114 -25.67053,1.84031 -22.69971,-1.11186 -23.57143,-1.40977 -23.57143,-8.05611 0,-4.58906 2.39337,-7.99209 7.14286,-10.15609 8.01679,-3.6527 8.57366,-5.75376 3.85956,-14.56212 l -3.28329,-6.13489 -2.6279,7.03701 c -2.55698,6.84706 -2.73836,6.88719 -6.71989,1.48657 -5.59441,-7.58835 -18.15835,-3.12004 -23.74637,8.44529 -2.26778,4.69354 -5.17408,10.72411 -6.45845,13.40126 -1.33542,2.78357 -1.13701,5.60805 0.46342,6.5972 1.53925,0.95128 2.79863,6.24802 2.79863,11.77051 0,8.02103 1.00582,9.84917 5,9.08791 2.75,-0.52414 5.42116,-3.91131 5.9359,-7.52705 1.4414,-10.12492 8.42822,-10.76015 17.95548,-1.63243 7.8137,7.486 10.93712,8.35706 36.25801,10.11171 22.23207,1.54063 35.33035,4.5314 66.27918,15.13377 248.6066,85.16695 525.05509,132.17158 742.85717,126.30826 89.3707,-2.40588 140.481,-9.32317 194.2857,-26.29466 56.5386,-17.83382 85.4161,-41.75728 92.938,-76.9942 l 1.8298,-8.57142 5.9,7.14285 c 11.53,13.95866 22.9239,43.50135 24.3706,63.18923 2.135,29.05592 -4.453,45.35714 -27.631,68.36903 -42.1134,41.81174 -129.2938,70.69026 -232.6067,77.05091 -60.3987,3.71855 -181.34617,2.85609 -228.679,-1.63068 z M 497.21528,636.14736 c 9.4438,-2.8984 10.0444,-2.62389 16.19934,7.40454 l 6.39194,10.41452 1.57057,-9.8152 c 1.56915,-9.8064 1.59069,-9.8186 24.01143,-13.59623 12.34246,-2.07957 24.55674,-5.13963 27.14286,-6.80012 3.54463,-2.27594 1.88894,-2.58954 -6.7266,-1.274 -6.28572,0.95978 -21.30314,2.50709 -33.37209,3.43846 l -21.94348,1.69343 -8.78543,-9.6188 c -4.832,-5.29037 -9.50834,-11.89651 -10.39192,-14.68033 -2.04508,-6.44352 -5.77714,-6.48738 -8.22945,-0.0967 -3.214,8.37554 -5.33292,39.98793 -3.0514,45.52424 1.90857,4.63131 2.4502,4.38363 4.76505,-2.17929 1.72823,-4.89968 5.92943,-8.42277 12.41918,-10.41451 z m 102.47991,-33.60951 c -0.90454,-2.35715 -3.59303,-4.28572 -5.97446,-4.28572 -3.52483,0 -3.66857,0.79684 -0.77305,4.28572 1.95625,2.35714 4.64477,4.28571 5.97445,4.28571 1.32969,0 1.67757,-1.92857 0.77306,-4.28571 z m -23.89037,-10 c -5.64532,-3.64828 -15.11192,-3.64828 -12.85714,0 0.9712,1.57142 5.22565,2.83745 9.45434,2.81339 6.0136,-0.0342 6.75488,-0.64711 3.4028,-2.81339 z m -25.71429,-5.45296 c -5.38594,-3.04383 -62.34657,-8.9733 -81.42857,-8.47653 l -14.28571,0.3719 17.14285,2.39375 c 55.10043,7.69394 86.06243,9.94438 78.57143,5.71088 z M 430.14342,456.76725 c 4.27857,-4.55432 6.65517,-11.5136 7.61457,-22.29731 1.406,-15.80388 -2.63649,-29.32712 -7.8108,-26.12921 -1.4926,0.92247 -2.7138,0.53414 -2.7138,-0.86295 0,-4.63384 -19.513,-1.98059 -25.53871,3.4726 -3.25869,2.94907 -5.33538,5.95147 -4.61486,6.67199 0.72051,0.72052 -0.55732,3.17738 -2.83963,5.45969 -6.48074,6.48074 -5.10449,22.16831 2.76529,31.521 9.06782,10.77652 24.12337,11.75977 33.13794,2.16419 z"
       id="path4938"
       inkscape:connector-curvature="0"
       transform="translate(-3.0517571e-4,-198.4253)" />
    <path
       style="fill:#ececec;fill-opacity:0.98000004"
       d="m 920.86788,897.4507 c -3.31763,-1.22651 -10.63546,-2.19597 -16.26183,-2.15434 -9.48649,0.0703 -24.77403,-1.30183 -53.08695,-4.7644 -6.28571,-0.76874 -15.41205,-1.72114 -20.28074,-2.11649 -4.86868,-0.39534 -10.20414,-1.55434 -11.85657,-2.5756 -1.65243,-1.02125 -6.02609,-1.91328 -9.71926,-1.98225 -17.27723,-0.32275 -25.28628,-1.52217 -25.28628,-3.78692 0,-1.35691 -3.82577,-1.90563 -8.50169,-1.21934 -4.67594,0.68626 -8.85451,0.19943 -9.28571,-1.08189 -0.43123,-1.28128 -7.5248,-2.66117 -15.76355,-3.06634 -8.23871,-0.4052 -14.98871,-1.85088 -15,-3.21266 -0.0114,-1.36174 -3.23477,-1.86148 -7.16334,-1.11048 -3.92857,0.751 -7.14286,0.108 -7.14286,-1.42857 0,-1.53672 -3.16942,-2.18815 -7.04317,-1.44763 -3.87377,0.74051 -7.40948,0.49097 -7.85714,-0.55454 -1.19763,-2.79698 -45.09137,-11.89663 -48.1794,-9.98815 -1.449,0.89555 -2.63457,0.11686 -2.63457,-1.73071 0,-1.95234 -2.393,-2.73323 -5.71429,-1.86469 -3.14285,0.82189 -5.71428,0.17915 -5.71428,-1.42857 0,-1.6076 -2.57143,-2.25046 -5.71429,-1.42857 -3.14286,0.82189 -5.71428,0.17914 -5.71428,-1.42857 0,-1.6076 -2.57143,-2.25046 -5.71429,-1.42857 -3.14286,0.82188 -5.71429,0.17914 -5.71429,-1.42857 0,-1.6076 -2.57142,-2.25046 -5.71428,-1.42858 -3.14286,0.82189 -5.71429,0.4816 -5.71429,-0.75614 0,-2.87063 -25.18771,-9.30583 -28.47397,-7.2748 -1.3566,0.83843 -2.95483,0.0594 -3.55163,-1.73086 -0.5968,-1.79042 -5.20368,-3.40557 -10.23751,-3.58925 -5.03383,-0.18372 -9.15537,-1.43577 -9.15894,-2.78249 -0.003,-1.34668 -1.93509,-1.70848 -4.29223,-0.80394 -2.35715,0.90451 -4.28572,0.5556 -4.28572,-0.77537 0,-2.91529 -22.97,-9.09677 -26.25614,-7.06583 -1.2734,0.787 -2.31529,-0.0683 -2.31529,-1.90052 0,-1.83228 -1.92857,-2.5914 -4.28571,-1.68685 -2.35714,0.90451 -4.28571,0.26171 -4.28571,-1.42857 0,-1.69026 -1.92858,-2.33312 -4.28572,-1.42858 -2.35714,0.90452 -4.28571,0.26172 -4.28571,-1.42857 0,-1.69025 -1.84552,-2.36497 -4.10112,-1.49943 -2.25563,0.86558 -4.54511,0.24172 -5.08774,-1.38611 -0.54266,-1.62794 -4.48194,-3.16286 -8.75403,-3.41091 -4.27206,-0.248 -7.76828,-1.55289 -7.76937,-2.8996 -0.001,-1.34669 -1.9306,-1.70849 -4.28774,-0.80395 -2.35715,0.90452 -4.28572,0.68109 -4.28572,-0.49651 0,-2.95223 -17.41071,-9.27983 -20.41868,-7.4208 -1.34115,0.82886 -2.43846,0.28486 -2.43846,-1.20897 0,-2.45943 -11.4638,-7.06549 -18.57143,-7.46189 -1.57143,-0.0877 -3.5,-0.99511 -4.28571,-2.01663 -0.78572,-1.02151 -4,-2.30723 -7.14286,-2.85714 -3.14286,-0.54991 -6.35714,-1.83563 -7.14286,-2.85714 -0.78571,-1.02152 -4,-2.30723 -7.14285,-2.85715 -3.14286,-0.54991 -7.41326,-2.607 -9.4898,-4.57128 -3.40643,-3.22229 -9.74492,-4.82009 -15.5102,-3.90977 -1.17858,0.186 -2.14286,-0.84766 -2.14286,-2.29723 0,-2.662 -19.60534,-10.46266 -23.57143,-9.37869 -1.17857,0.32215 -2.14286,-0.77591 -2.14286,-2.44008 0,-1.66417 -1.17591,-2.299 -2.61311,-1.41077 -1.4372,0.88825 -3.04434,0.5388 -3.57143,-0.77655 -1.15894,-2.89223 -45.78043,-24.78245 -48.81546,-23.94771 -1.17857,0.32414 -2.14285,-0.77223 -2.14285,-2.4364 0,-1.66417 -1.28572,-2.23114 -2.85715,-1.25994 -1.57143,0.9712 -2.85714,0.48742 -2.85714,-1.07503 0,-1.56243 -4.5,-4.46803 -10,-6.45686 -5.5,-1.98883 -10,-4.34891 -10,-5.2446 0,-0.89571 -6.06879,-4.816 -13.48619,-8.71177 -7.41741,-3.89574 -15.79626,-9.12752 -18.61966,-11.62617 -2.8234,-2.49866 -8.64747,-6.3558 -12.94238,-8.57143 -4.2949,-2.21563 -11.01006,-6.92129 -14.92258,-10.457 -3.91251,-3.53572 -8.42466,-6.42857 -10.027,-6.42857 -1.60234,0 -4.51924,-2.57143 -6.48198,-5.71429 -1.96275,-3.14286 -5.16488,-5.82311 -7.11585,-5.95614 -1.95097,-0.13286 -7.87492,-5.27586 -13.16433,-11.42857 l -9.61711,-11.18672 7.95045,0 c 7.82042,0 8.33854,-2.53577 0.83129,-4.06854 -4.38893,-0.89611 -10.1495,-3.09497 -27.71869,-10.58054 -9.19618,-3.91815 -12.00074,-6.49612 -10.71428,-9.84857 0.95843,-2.49763 1.7426,-5.03849 1.7426,-5.64635 0,-0.60788 1.92857,-0.36517 4.28571,0.53935 2.35714,0.90454 4.29238,0.54274 4.30052,-0.80395 0.008,-1.34671 5.39697,-2.7588 11.97517,-3.138 6.5782,-0.3792 13.15678,-1.88588 14.61907,-3.34817 1.46228,-1.46228 4.4306,-1.97874 6.59625,-1.14771 2.16566,0.83105 6.18756,0.54585 8.93756,-0.63377 4.80411,-2.06072 7.63181,-2.62289 18.57143,-3.69218 2.75,-0.26885 5,-1.93874 5,-3.71102 0,-2.22286 -3.76625,-2.5566 -12.14286,-1.07595 -6.67857,1.18049 -15.82977,1.95572 -20.336,1.72275 -4.50623,-0.23286 -9.71599,0.84025 -11.57724,2.38494 -4.05406,3.36457 -15.9439,0.77243 -15.9439,-3.476 0,-1.65006 -0.75152,-2.24857 -1.67004,-1.33006 -0.91853,0.91854 -3.81138,-0.16343 -6.42857,-2.40434 -2.6172,-2.24089 -5.9005,-3.95403 -7.29624,-3.80694 -1.39574,0.14714 -3.32431,-0.9032 -4.28571,-2.33392 -0.96141,-1.43074 -10.10515,-8.16177 -20.31944,-14.95783 -10.214286,-6.79608 -24.035714,-16.74994 -30.714286,-22.11971 -6.678571,-5.36977 -12.142857,-9.03954 -12.142857,-8.15512 0,4.64263 -45.587913,-48.37621 -52.47274,-61.0259 C 4.4920278,453.40584 -2.5919759,422.32449 1.2932564,420.47027 2.203187,420.03601 5.434977,414.79458 8.4750118,408.82266 14.317764,397.345 31.60391,383.23167 52.947676,372.51281 c 7.071428,-3.55128 13.643748,-7.67969 14.605151,-9.17423 0.961406,-1.49455 2.589954,-2.51009 3.618997,-2.25677 4.244483,1.0449 18.918709,-3.47259 18.918709,-5.82416 0,-1.39726 1.928571,-1.8004 4.285714,-0.89588 2.357143,0.90452 4.285714,0.14543 4.285714,-1.68686 0,-1.8323 1.084946,-2.66091 2.410989,-1.84137 2.22754,1.37669 18.98645,-2.08338 29.01758,-5.99102 12.74364,-4.96429 29.27117,-6.8543 74.28572,-8.49498 24.35714,-0.88776 44.64415,-2.54058 45.08225,-3.67293 0.43809,-1.13236 20.36666,-1.62221 44.28572,-1.08857 132.85271,2.96397 173.18646,4.16447 183.48917,5.46137 6.28571,0.79124 16.57143,2.12154 22.85714,2.95622 6.28572,0.83469 16.88937,2.17119 23.56369,2.97001 14.69223,1.75844 29.70648,3.65241 45.00774,5.67747 6.28572,0.8319 14.64286,1.88423 18.57143,2.33853 3.92857,0.45429 10.35714,1.63702 14.28571,2.62828 3.92858,0.99126 13.57143,2.54585 21.42858,3.45465 7.85714,0.90879 17.5,2.22641 21.42857,2.92804 3.92857,0.70163 11.64285,1.96306 17.14285,2.80317 5.5,0.84011 13.85715,2.18214 18.57143,2.98229 4.71429,0.80014 11.14286,1.83843 14.28572,2.30731 3.14285,0.46887 7.64285,1.55282 10,2.40877 2.35714,0.85595 6.21428,1.68922 8.57143,1.85171 9.38702,0.64711 18.82145,2.4114 23.57142,4.40797 2.75,1.15592 6.84552,1.39348 9.10112,0.52792 2.25563,-0.86556 4.50751,-0.35456 5.00423,1.13556 0.49671,1.49011 6.35883,3.02503 13.02694,3.41092 6.66809,0.38589 12.13049,1.54525 12.13863,2.57636 0.0171,1.9987 27.1414,6.83794 34.25883,6.11182 2.3342,-0.23815 4.95574,0.71863 5.82563,2.12616 0.86991,1.40752 6.03154,2.92226 11.47028,3.36606 5.43874,0.44381 10.59672,1.75399 11.46217,2.91151 0.86543,1.15752 5.36543,2.59224 10,3.18827 4.63455,0.59602 12.07006,2.55102 16.52337,4.34443 4.45329,1.79341 9.18589,2.58771 10.51686,1.76513 1.33097,-0.82259 3.24049,-0.16798 4.24337,1.45473 1.00289,1.6227 2.86412,2.30716 4.13612,1.52104 1.27197,-0.78612 6.00454,0.40095 10.51685,2.63794 4.51229,2.23699 12.06132,4.68206 16.7756,5.43348 4.71429,0.75143 9.21429,1.66778 10,2.03635 0.78572,0.36858 2.71429,0.92 4.28572,1.22538 1.57143,0.30539 4.78571,1.39482 7.14286,2.42096 14.79642,6.44134 97.03172,32.45502 98.36932,31.11739 0.8969,-0.89685 1.6307,0.007 1.6307,2.00838 0,2.06085 1.8586,2.92579 4.2857,1.99444 2.3571,-0.90453 4.2857,-0.39923 4.2857,1.12289 0,1.5221 1.5429,2.76747 3.4286,2.76747 2.5905,0 2.5555,-0.87302 -0.1429,-3.57143 -1.9643,-1.96429 -4.4714,-3.68247 -5.5714,-3.81819 -1.1,-0.13572 -3.9286,-1.07083 -6.2857,-2.07803 -6.2184,-2.65708 -87.01022,-30.88058 -87.85717,-30.69167 -0.81677,0.18217 -2.63005,-0.22923 -5.71428,-1.29646 -1.17857,-0.40782 -5.03572,-1.68277 -8.57143,-2.83323 -3.53572,-1.15046 -6.42857,-3.30796 -6.42857,-4.79445 0,-2.7107 18.14585,-22.00415 105.64405,-112.32525 l 47.0726,-48.59129 42.9274,-13.56067 c 23.6101,-7.45836 44.5345,-13.56551 46.4988,-13.57143 1.9643,-0.006 3.5714,-1.34717 3.5714,-2.98055 0,-1.71221 1.6809,-1.40974 3.9696,0.71429 2.1832,2.02624 2.9876,4.32693 1.7875,5.11264 -2.0443,1.33839 -6.9022,17.96112 -7.0974,24.28572 -0.049,1.57143 -1.0332,3.56391 -2.1881,4.42774 -1.1549,0.86383 -2.9467,6.00669 -3.9818,11.42857 -1.0351,5.42189 -0.958,9.0115 0.1714,7.97692 1.1294,-1.03458 2.3402,-3.60601 2.6907,-5.71429 0.3505,-2.10827 2.1374,-6.55704 3.9708,-9.88613 1.8334,-3.3291 2.5216,-6.86482 1.5293,-7.85715 -0.9925,-0.99233 -0.5626,-1.80423 0.955,-1.80423 2.2431,0 10.3221,-17.46203 10.575,-22.85715 0.037,-0.78571 1.8827,-3.24423 4.1018,-5.46337 3.4363,-3.43626 4.3987,-3.44594 6.4881,-0.0652 1.5139,2.44952 1.0129,5.63562 -1.3084,8.32051 -2.0689,2.39303 -3.7181,6.30014 -3.6649,8.68247 0.097,4.35252 -6.7192,28.67057 -14.0022,49.95421 -3.6575,10.6886 -6.5323,22.86582 -7.7568,32.85715 -0.2889,2.35714 -1.4485,4.97907 -2.5769,5.8265 -1.1284,0.84743 -2.3661,5.66886 -2.7506,10.71429 -0.3844,5.04542 -1.5653,9.17349 -2.6241,9.17349 -1.0588,0 -2.6081,3.53572 -3.4428,7.85715 -0.8347,4.32142 -3.0151,13 -4.8452,19.28571 -1.8301,6.28571 -4.0127,14.98002 -4.8503,19.32069 -0.8375,4.34066 -2.6822,8.60869 -4.0994,9.48452 -2.4577,1.51894 -1.5386,-12.71639 2.0441,-31.66235 3.1043,-16.41536 3.5112,-24.89124 1.0779,-22.45101 -1.3442,1.34805 -2.9824,6.95101 -3.6404,12.45101 -0.6581,5.5 -2.0049,11.92857 -2.993,14.28571 -0.9882,2.35714 -2.2072,8.20101 -2.709,12.98637 -0.5018,4.78535 -1.8696,10.24964 -3.0397,12.14285 -1.1701,1.89322 -1.3877,4.63908 -0.4836,6.10193 0.9041,1.46285 0.4189,3.41673 -1.0782,4.34197 -1.497,0.92524 -2.683,3.90694 -2.6354,6.626 0.047,2.71906 -0.8115,8.15802 -1.9091,12.0866 -1.0975,3.92857 -2.1366,9.39285 -2.3091,12.14285 -0.1726,2.75 -1.3801,5 -2.6837,5 -1.3036,0 -2.0206,1.60715 -1.5934,3.57143 1.1758,5.4059 -12.4412,31.69306 -14.6043,28.19314 -1.0363,-1.67686 -4.3999,-3.43993 -7.4745,-3.91793 -3.0747,-0.478 -7.283,-1.92493 -9.3518,-3.2154 -3.3396,-2.08309 -8.9789,-0.23837 -6.0004,1.96283 3.6406,2.69047 41.5324,17.49807 43.3333,16.9341 1.1786,-0.36906 2.1429,0.69057 2.1429,2.35474 0,1.66417 1.2857,2.23115 2.8571,1.25995 1.5715,-0.9712 2.8572,-0.32834 2.8572,1.42857 0,1.75691 1.2857,2.39977 2.8571,1.42857 1.5714,-0.97119 2.8572,-0.32834 2.8572,1.42857 0,1.75692 1.2857,2.39977 2.8571,1.42858 1.5714,-0.9712 2.8571,-0.32834 2.8571,1.42857 0,1.75691 1.2858,2.39977 2.8572,1.42857 1.5714,-0.9712 2.8571,-0.32834 2.8571,1.42857 0,1.75691 1.1759,2.46763 2.6131,1.5794 1.4372,-0.88826 3.0444,-0.57849 3.5715,0.68837 1.5471,3.71863 50.1521,29.01463 52.0683,27.09846 0.9609,-0.96094 1.7471,-0.28029 1.7471,1.51277 0,1.793 3.8572,5.25457 8.5715,7.69243 4.7142,2.43786 8.5714,3.75657 8.5714,2.93051 0,-0.82605 2.6183,1.11637 5.8185,4.31655 3.2002,3.2002 7.0573,5.05288 8.5714,4.11711 1.5141,-0.93577 2.7529,-0.52186 2.7529,0.91983 0,1.44168 7.0715,7.31643 15.7143,13.05494 8.6429,5.73854 15.7143,9.63529 15.7143,8.65943 0,-0.97586 2.5287,1.261 5.6192,4.97083 3.0906,3.7098 5.662,5.73606 5.7143,4.5028 0.052,-1.23323 4.0817,2.29831 8.9543,7.84788 4.8726,5.54958 9.6941,9.724 10.7143,9.27652 1.0203,-0.44752 5.9235,3.4138 10.896,8.58068 4.9725,5.16689 8.5167,9.39435 7.876,9.39435 -0.6407,0 3.2318,5.76 8.6055,12.8 5.3738,7.03997 10.5948,15.39711 11.6023,18.57143 1.0075,3.17428 2.9105,5.77142 4.2289,5.77142 1.3184,0 1.7247,2.57143 0.9028,5.71429 -0.8219,3.14286 -0.3801,5.71343 0.9818,5.7124 1.3618,-0.001 2.476,4.70037 2.476,10.44751 0,5.80455 1.5876,10.99132 3.5715,11.66855 2.1686,0.74028 3.5714,-1.33689 3.5714,-5.28832 0,-6.04828 0.4707,-5.86948 6.6706,2.534 3.6688,4.9728 9.0976,14.54403 12.064,21.26937 2.9663,6.72535 6.0717,12.87078 6.9008,13.65649 0.8291,0.78571 1.6146,3.67857 1.7455,6.42857 0.1309,2.75 0.4524,9.57589 0.7143,15.16863 0.2789,5.95414 1.6604,9.43674 3.3334,8.4028 3.6093,-2.23066 3.6939,2.82623 0.156,9.32449 -2.4655,4.52854 -7.0229,26.57651 -5.9385,28.72934 1.8156,3.6044 -45.0038,44.37923 -61.3605,53.43848 -11,6.09246 -20.4045,12.03398 -20.8989,13.20338 -0.4943,1.16937 -2.5786,1.4816 -4.6316,0.69377 -2.053,-0.7878 -5.5056,0.24885 -7.6725,2.30337 -2.1669,2.05466 -5.2255,3.84477 -6.797,3.97803 -7.2624,0.61588 -21.4291,4.94068 -21.4342,6.54343 -0,0.98214 -4.0847,2.073 -9.0702,2.42411 -4.9855,0.35111 -9.8044,1.63683 -10.7086,2.85714 -0.9043,1.22032 -6.1441,2.65946 -11.6441,3.19812 -5.5,0.53865 -11.404,2.13465 -13.12,3.54665 -1.716,1.41198 -3.9106,1.77672 -4.8768,0.81052 -0.9662,-0.96623 -4.0622,-0.76392 -6.88,0.4496 -2.8178,1.21348 -7.8933,1.93926 -11.2789,1.61283 -3.3856,-0.32646 -6.9226,0.6474 -7.86,2.16408 -0.9373,1.51669 -4.2552,2.09055 -7.373,1.27523 -3.1178,-0.81534 -7.938,-0.59123 -10.7115,0.498 -7.5545,2.96686 -29.4622,3.71032 -141.638,4.80666 -56.27027,0.54994 -105.02398,-0.003 -108.34161,-1.23009 l 9e-5,0 z M 1140.0905,791.16393 c 20.5882,-1.58826 32.6312,-2.92743 50,-5.55988 14.9963,-2.27289 23.0319,-3.76189 43.4888,-8.05849 2.7045,-0.56803 5.723,-1.83857 6.7079,-2.8234 0.9848,-0.98483 3.4634,-1.14869 5.508,-0.36411 4.6461,1.78291 8.339,-3.60683 4.2168,-6.15446 -1.6659,-1.0296 -4.698,-0.48672 -6.7381,1.20634 -2.04,1.69309 -4.4696,2.31789 -5.399,1.38846 -0.9295,-0.92943 -3.36,-0.65772 -5.4012,0.6038 -2.0412,1.26154 -5.6625,2.59517 -8.0472,2.96363 -2.3848,0.36845 -8.1931,1.39717 -12.9074,2.28597 -15.9797,3.0128 -28.5331,4.32317 -40.7695,4.25571 -6.7089,-0.0369 -13.4657,0.71626 -15.0152,1.67383 -1.5494,0.9576 -36.9815,1.62229 -78.738,1.47709 -51.4292,-0.17886 -75.3341,0.68543 -74.1019,2.67914 1.1768,1.90414 -4.73725,2.94314 -16.75245,2.94314 -10.21429,0 -19.36603,-1.28571 -20.33723,-2.85714 -1.01357,-1.64 -15.93443,-2.85714 -35.02577,-2.85714 -43.0402,0 -40.13229,5.6778 3.82234,7.46325 16.98023,0.68975 31.40077,1.78172 32.04571,2.42663 1.55292,1.55295 147.851,-0.71805 173.4434,-2.69237 z m -245.80348,-4.196 c 1.51414,-2.44994 -10.42323,-5.5568 -21.33934,-5.55388 -2.35715,6.5e-4 -9.75,-0.87983 -16.42858,-1.95658 -8.18291,-1.31928 -12.14285,-0.92105 -12.14285,1.22118 0,3.81068 12.61788,7.39628 18.32328,5.20691 2.22769,-0.85483 7.69486,-0.46114 12.14926,0.87486 11.15569,3.34597 17.457,3.41323 19.43823,0.20743 l 0,8e-5 z m -54.24826,-5.77488 c 1.75112,-2.83338 -6.8358,-5.7662 -17.09108,-5.8374 -3.14286,-0.0229 -10.85715,-0.78952 -17.14286,-1.70603 -6.28572,-0.91652 -15.28572,-2.03949 -20,-2.49552 -4.71429,-0.456 -10.82143,-1.75448 -13.57143,-2.88551 -2.75,-1.13103 -6.77191,-1.37646 -8.93754,-0.5454 -2.16566,0.83103 -5.05852,0.39128 -6.42857,-0.97723 -1.37009,-1.36851 -9.56246,-3.06289 -18.20532,-3.76529 -8.64286,-0.70237 -17.64286,-2.04617 -20,-2.98622 -2.35714,-0.94006 -9.42857,-2.21098 -15.71428,-2.82426 -6.28572,-0.61332 -13.35715,-1.89903 -15.71429,-2.85714 -2.35714,-0.95815 -9.55817,-2.19795 -16.00229,-2.75512 -6.44411,-0.5572 -13.25568,-1.96428 -15.13682,-3.12691 -1.88115,-1.1626 -5.24606,-1.41317 -7.47763,-0.55686 -2.23157,0.85634 -4.85535,0.266 -5.83057,-1.31209 -0.97526,-1.578 -3.90929,-2.60997 -6.52009,-2.29325 -2.6108,0.31668 -6.67546,-0.15029 -9.0326,-1.03769 -9.46163,-3.56217 -32.21863,-7.99846 -33.65609,-6.561 -0.84282,0.84283 -3.12822,0.208 -5.07865,-1.41068 -1.9504,-1.61869 -7.98332,-3.34123 -13.40646,-3.82786 -5.42314,-0.48663 -11.42403,-1.85126 -13.33531,-3.03252 -1.91132,-1.18125 -4.23555,-1.38725 -5.16498,-0.45782 -0.92942,0.92942 -3.09391,0.58368 -4.80991,-0.76832 -3.0318,-2.38868 -30.15769,-9.5492 -38.88454,-10.26448 -2.38477,-0.19543 -6.00603,-1.38758 -8.04723,-2.64912 -2.0412,-1.26151 -4.47174,-1.53323 -5.40117,-0.6038 -0.92943,0.92943 -3.28,0.3702 -5.22346,-1.24271 -1.94346,-1.61295 -4.6332,-2.67989 -5.97717,-2.371 -1.34397,0.30891 -6.25632,-1.0052 -10.91629,-2.9202 -4.66,-1.915 -12.05028,-3.72977 -16.42291,-4.0328 -4.3726,-0.30303 -7.95274,-1.37217 -7.95586,-2.37586 -0.006,-1.52303 -13.3576,-5.30123 -24.2914,-6.87329 -1.57143,-0.226 -6.50074,-1.90617 -10.95406,-3.73388 -8.1194,-3.33234 -14.68485,-2.06894 -11.98125,2.3056 0.794,1.28468 6.27925,3.34617 12.18945,4.58106 12.42429,2.59591 14.76438,3.18717 15.74586,3.97828 0.87323,0.70386 6.6092,2.1424 17.58486,4.41014 4.56454,0.94312 10.67168,2.98449 13.57143,4.53638 2.89977,1.55191 5.27228,2.05768 5.27228,1.12394 0,-0.93374 1.60715,-0.69372 3.57143,0.5334 1.96429,1.22714 4.85714,2.51357 6.42857,2.85874 2.69369,0.59169 8.16872,1.9324 21.42857,5.24737 l 11.42858,2.85715 11.42857,2.85714 11.42857,2.85714 11.42857,2.85714 c 14.67397,3.66849 18.97174,4.66709 24.28571,5.64278 3.14286,0.57705 8.92858,1.90874 12.85715,2.95934 3.92857,1.05057 9.71428,2.3306 12.85714,2.84448 3.14286,0.51389 5.71429,1.20558 5.71429,1.53709 0,0.33151 2.57142,1.05597 5.71428,1.60994 5.38749,0.9496 11.83934,2.20266 28.55612,5.546 3.92857,0.78572 10.682,2.10709 15.00765,2.9364 4.32563,0.82929 11.07909,2.18026 15.00766,3.00212 7.1316,1.49197 19.19946,3.58037 30,5.19168 3.14286,0.46886 7.64286,1.5528 10,2.40877 2.35714,0.85595 6.21429,1.69872 8.57143,1.87286 4.58231,0.33849 18.04151,2.20992 34.28571,4.76723 21.5184,3.3876 30.33195,4.53537 38.57143,5.02303 4.71429,0.27914 10.00312,1.40871 11.75297,2.51046 1.74983,1.10171 7.86272,1.82714 13.5842,1.61205 5.72146,-0.21514 11.25406,0.46032 12.29466,1.50092 2.8466,2.84663 11.7956,2.27277 13.74497,-0.88137 z M 1268.662,766.76302 c 1.5714,-0.34323 5.8336,-1.75572 9.4717,-3.13889 3.638,-1.38317 7.3128,-2.51486 8.1663,-2.51486 4.0015,0 29.5048,-13.09694 29.5048,-15.15191 0,-1.28049 1.2948,-1.52794 2.8773,-0.54989 1.5826,0.97803 3.6487,-0.23171 4.5914,-2.68854 0.9428,-2.45674 3.2899,-4.4668 5.2159,-4.4668 6.401,0 30.1362,-33.22826 28.0621,-39.28571 -1.998,-5.83529 -5.7141,-4.07915 -7.6446,3.61274 -1.6935,6.74729 -26.2981,36.50257 -31.0992,37.60934 -5.3169,1.22569 -29.3101,13.62686 -30.8937,15.96777 -0.9615,1.42115 -2.89,2.43766 -4.2858,2.25892 -4.5649,-0.58463 -29.6805,6.58463 -29.6805,8.47231 0,3.95309 3.8232,5.33437 8.2328,2.97443 2.5434,-1.36117 5.91,-2.75568 7.4815,-3.09891 z M 403.66156,685.1565 c -2.72271,-2.72274 -8.1814,1.68743 -6.15228,4.97057 1.20605,1.95143 2.80417,1.90215 4.85611,-0.14971 1.68217,-1.68217 2.26546,-3.85151 1.29617,-4.82077 l 0,-9e-5 z m -8.04723,-1.93503 c -1.57188,-1.06674 -68.95245,-22.6476 -72.30951,-23.15954 -1.375,-0.20971 -3.15757,1.4308 -3.96129,3.64549 -1.01285,2.791 -0.0257,3.47611 3.21429,2.23251 2.57157,-0.9868 4.67557,-0.41126 4.67557,1.27897 0,1.69026 1.92857,2.33312 4.28571,1.42857 2.35715,-0.90451 4.28572,-0.26171 4.28572,1.42858 0,1.69025 1.92857,2.33311 4.28571,1.42857 2.35715,-0.90452 4.28572,-0.26172 4.28572,1.42857 0,1.69026 1.92857,2.33311 4.28571,1.42857 2.35714,-0.90451 4.28572,-0.26171 4.28572,1.42857 0,1.69026 1.92857,2.33312 4.28571,1.42857 2.35714,-0.90451 4.28571,-0.26171 4.28571,1.42857 0,1.69026 1.92858,2.33312 4.28572,1.42858 2.35714,-0.90452 4.28571,-0.26172 4.28571,1.42857 0,1.69025 1.92857,2.33311 4.28572,1.42857 2.35714,-0.90452 4.28571,-0.26172 4.28571,1.42857 0,1.69026 1.8874,2.34891 4.1942,1.46369 2.30683,-0.8852 5.02337,-0.268 6.03677,1.37185 1.27252,2.05897 2.78877,2.03509 4.90103,-0.0771 1.68217,-1.68217 2.50134,-3.43657 1.82037,-3.89866 l 0,-3e-5 z m 48.22866,-24.47508 c 0.91863,-9.30183 -3.9856,-12.64832 -7.00494,-4.77997 -2.36675,6.16763 -8.87517,5.27308 -12.62597,-1.73532 -4.35669,-8.14054 0.0877,-12.158 12.91677,-11.67571 5.55748,0.20886 10.10454,-0.86669 10.10454,-2.39026 0,-2.52043 -3.97911,-3.17497 -25.71429,-4.22994 -3.92857,-0.19057 -7.55591,-1.54737 -8.06074,-3.01486 -0.50483,-1.46751 -2.75763,-4.70111 -5.00623,-7.18577 -2.2486,-2.48466 -3.47717,-5.12874 -2.7302,-5.87574 1.79803,-1.798 -14.54405,-19.60669 -17.992,-19.60669 -1.47548,0 -2.72825,5.46429 -2.78394,12.14286 -0.0557,6.67857 -0.21457,15.35714 -0.35334,19.28571 l -0.252,7.14286 -33.78832,0.95349 -33.78834,0.95348 -5.00154,-13.09634 c -2.75097,-7.203 -6.25692,-13.09634 -7.79112,-13.09634 -1.5342,0 -1.99485,-1.28572 -1.02365,-2.85715 0.9712,-1.57143 0.32834,-2.85714 -1.42858,-2.85714 -1.75691,0 -2.46382,-1.18206 -1.57094,-2.6268 0.89292,-1.44474 0.006,-4.3376 -1.97423,-6.42857 -8.5102,-8.99294 -3.46063,-21.12289 7.3866,-17.74403 2.89852,0.90289 22.82709,0.6352 44.28572,-0.59486 33.25477,-1.9062 36.93308,-2.5564 24.91117,-4.40334 -11.00252,-1.69034 -87.63372,-1.41477 -116.55349,0.41914 -11.24994,0.7134 -6.72563,5.00889 6.98618,6.63286 19.91817,2.359 24.25462,6.85414 18.09785,18.76003 -2.56274,4.9558 -4.00468,10.07008 -3.20434,11.36508 0.80037,1.295 -0.02,6.26218 -1.82252,11.0382 -3.05987,8.10652 -4.43061,8.77455 -20.62414,10.05126 -9.54054,0.75217 -18.56786,0.24723 -20.06071,-1.12211 -1.49286,-1.36935 -5.10126,-2.48972 -8.01868,-2.48972 -5.0901,0 -5.10393,-0.33934 -0.34246,-8.39985 2.72906,-4.61995 6.16667,-8.15566 7.63914,-7.85715 3.50002,0.70952 5.14223,-9.46903 2.3366,-14.4824 -1.81137,-3.23674 -2.81432,-3.15114 -5.84351,0.49883 -2.44175,2.94212 -5.21854,3.60009 -8.35682,1.98012 -2.58499,-1.33435 -7.26974,-2.017 -10.41055,-1.51703 -6.6254,1.05463 -16.42948,12.02911 -14.1055,15.78937 0.87003,1.40774 0.35784,2.55954 -1.13821,2.55954 -5.10994,0 -5.9743,8.46034 -2.01176,19.69137 2.17736,6.17132 3.09261,12.08683 2.03387,13.14555 -1.05874,1.05874 0.004,1.49642 2.36073,0.9726 2.35715,-0.5238 5.21912,-3.23086 6.35993,-6.01572 3.18397,-7.77231 10.02746,-8.953 18.66213,-3.21971 9.41387,6.25068 7.43557,5.70591 39.26366,10.81214 14.14286,2.26897 29.10974,4.98231 33.25974,6.02966 4.55946,1.15068 8.34734,0.60677 9.5718,-1.37446 2.47934,-4.01166 1.63157,-4.93537 -5.68868,-6.19837 -3.14286,-0.54226 -7.0924,-2.2722 -8.77678,-3.84432 -4.51111,-4.21048 -9.63014,-38.5888 -5.73274,-38.49988 3.09069,0.0706 13.08094,17.65834 13.08094,23.02897 0,1.57543 2.89286,5.95646 6.42858,9.73557 5.47614,5.85317 8.2276,6.62557 18.57142,5.2134 6.67858,-0.91177 12.14286,-2.51603 12.14286,-3.565 0,-2.11206 11.6192,-1.30174 40.82237,2.84697 12.83077,1.8228 21.212,1.78209 24.76655,-0.12028 4.3906,-2.34977 6.80042,-1.18237 13.18245,6.38588 4.29532,5.09372 9.39695,8.91712 11.33692,8.49643 1.93997,-0.42068 4.31705,1.29337 5.2824,3.80903 2.79368,7.2802 8.81123,3.07874 9.79034,-6.8356 l 0,3e-5 z M 318.12625,658.4307 c 0.71428,-2.14285 -0.35715,-3.21428 -2.5,-2.5 -2.06249,0.68749 -4.31252,2.93749 -5,5 -0.71429,2.14286 0.35714,3.21429 2.5,2.5 2.06248,-0.68751 4.31251,-2.93751 5,-5 z m 176.6756,-19.85263 c 10.19091,-4.64328 11.95997,-4.09662 17.7954,5.49895 l 5.27983,8.682 3.48354,-8.40995 c 3.90937,-9.43811 7.32677,-10.98434 34.4442,-15.58451 3.92857,-0.66646 8.10714,-1.3758 9.28571,-1.57637 1.17857,-0.20057 2.14286,-1.78972 2.14286,-3.53152 0,-2.06334 -2.73791,-2.42902 -7.85714,-1.04942 -4.32143,1.1646 -12.35715,1.92848 -17.85715,1.69754 -5.5,-0.23086 -13.92622,0.722 -18.72497,2.11771 -7.66123,2.22829 -9.97983,1.38772 -19.01717,-6.8944 -5.66071,-5.18765 -9.55591,-10.1684 -8.65597,-11.06831 0.89991,-0.89994 0.0603,-1.63623 -1.86574,-1.63623 -1.92609,0 -2.70735,-1.28571 -1.73615,-2.85714 0.9712,-1.57143 0.40423,-2.85715 -1.25994,-2.85715 -5.07866,0 -7.30791,1.29335 -7.387,4.28572 -0.0414,1.57143 -0.97934,4.29866 -2.084,6.06048 -1.10466,1.76183 -1.45297,9.47612 -0.77403,17.14286 0.67895,7.66674 1.38235,16.51094 1.56309,19.6538 0.31651,5.5034 0.43768,5.48909 3.28357,-0.38834 1.62523,-3.35643 6.09869,-7.535 9.94106,-9.28572 z M 599.9685,600.91185 c -0.90408,-1.46283 -3.65391,-2.65972 -6.11071,-2.65972 -3.63197,0 -3.80697,0.7952 -0.93623,4.25426 3.689,4.44494 9.90963,3.03737 7.04694,-1.59454 z m -22.74685,-8.39303 c -0.96475,-1.56097 -4.96835,-2.83812 -8.89692,-2.83812 -9.29591,0 -6.67397,4.2424 3.12306,5.0532 4.38651,0.36306 6.79594,-0.56131 5.77386,-2.21508 z m -39.98826,-5.69526 c 0.9712,-1.57143 -0.56006,-3.058 -3.4028,-3.30349 -2.84274,-0.24542 -8.38291,-0.71651 -12.31149,-1.04668 -3.92857,-0.33017 -12.44565,-1.55352 -18.92688,-2.71857 -7.45243,-1.33963 -12.4702,-1.00797 -13.65083,0.90231 -1.77751,2.87609 4.18546,4.54689 25.43486,7.12674 16.80457,2.04023 21.11463,1.85915 22.85714,-0.96031 z m 12.85714,1.5972 c 0,-3.01566 -5.48317,-4.2826 -7.11405,-1.6438 -0.98703,1.59706 0.20971,2.90374 2.65971,2.90374 2.44989,0 4.45434,-0.56697 4.45434,-1.25994 z m -70,-7.31149 c -0.9712,-1.57142 -4.5828,-2.83745 -8.02577,-2.8134 -5.08923,0.0357 -5.45846,0.56172 -1.97423,2.8134 5.62892,3.63769 12.2482,3.63769 10,0 z M 1077.9714,470.89489 c -0.9036,-0.90363 -3.3679,-1.99178 -5.4762,-2.41813 -2.1083,-0.42634 -7.5473,-2.29441 -12.0866,-4.15126 -4.5394,-1.85686 -8.9323,-2.69727 -9.7619,-1.86759 -2.1819,2.18184 -0.5832,3.09815 13.7295,7.86905 12.1364,4.04545 17.2879,4.26065 13.5952,0.56793 z M 428.40882,455.17478 c 9.03854,-10.74171 11.46731,-19.55473 9.00551,-32.67734 -4.00051,-21.3245 -28.16937,-24.25235 -39.645,-4.80265 -3.34274,5.66554 -6.42308,12.56408 -6.8452,15.33008 -1.92285,12.59966 12.14817,30.94155 23.73689,30.94155 3.58351,0 9.57311,-3.83031 13.7478,-8.79164 z M 1149.3199,341.30721 c -0.2286,-3.03399 -1.4344,-4.88668 -2.6796,-4.11709 -3.1681,1.95796 -2.837,9.63344 0.4155,9.63344 1.4738,0 2.4926,-2.48236 2.2641,-5.51635 z"
       id="path4940"
       inkscape:connector-curvature="0"
       transform="translate(-3.0517571e-4,-198.4253)" />
    <path
       style="fill:#ececec;fill-opacity:0.98000004"
       d="m 894.96768,693.59976 c -60.50349,-6.1768 -135.06518,-18.02071 -190,-30.18097 -14.14286,-3.13063 -37.28572,-8.25309 -51.42858,-11.38326 -14.14285,-3.13017 -34.71428,-8.37528 -45.71428,-11.65583 -11,-3.28054 -25.14286,-7.30168 -31.42857,-8.93588 -26.90712,-6.99543 -92.91937,-28.37275 -121.42857,-39.32323 -8.64286,-3.31974 -21.46318,-8.04612 -28.4896,-10.503 -11.40058,-3.9864 -24.35838,-9.47237 -53.37078,-22.59572 -4.95177,-2.23985 -9.72788,-4.07248 -10.61357,-4.07248 -1.63505,0 -60.6586,-29.23283 -78.95463,-39.10417 -11.18871,-6.03672 -15.19466,-8.53417 -55.71428,-34.73437 -29.64711,-19.17 -32.45624,-21.31483 -51.42857,-39.26706 l -11.42857,-10.81406 7.14285,-2.07151 c 6.63145,-1.9232 6.73374,-2.20735 1.42857,-3.96863 -20.29063,-6.7364 -37.25884,-15.33454 -38.01542,-19.26317 -0.94078,-4.88509 11.598,-8.45206 52.07074,-14.81286 10.87328,-1.70886 20.30186,-4.71417 20.95238,-6.67846 1.4418,-4.35354 -7.65754,-4.52088 -34.53492,-0.63511 -17.254,2.49448 -20.4138,2.20271 -27.14286,-2.50634 -4.1886,-2.93123 -9.02094,-5.83423 -10.73853,-6.45118 -7.43041,-2.6688 -69.132601,-47.84337 -79.303838,-58.0614 C 30.462166,290.09531 13.069064,264.71768 7.7087052,244.91491 L 2.4981898,225.66571 9.3133315,212.81905 C 16.193712,199.8494 34.872546,183.80791 56.396246,172.38396 c 6.285714,-3.33621 13.357143,-7.21094 15.714286,-8.6105 2.357143,-1.39956 11.357143,-4.56544 20,-7.0353 61.251978,-17.50388 53.904228,-16.50381 172.857148,-23.52698 51.79174,-3.05787 208.59434,3.66126 268.57142,11.50853 87.65678,11.46882 189.633,28.27621 235.71429,38.84968 5.5,1.26198 19.64286,4.32814 31.42857,6.81367 11.78572,2.48553 25.92857,5.72661 31.42857,7.20239 5.5,1.47579 22.21429,5.9593 37.14286,9.96335 14.92857,4.00406 33.81623,9.14323 41.97257,11.42037 18.21769,5.08615 99.51384,31.43337 120.58504,39.08033 14.7728,5.36118 23.3085,5.17418 14.5025,-0.31772 -4.4236,-2.7588 -72.54025,-26.99766 -100.73431,-35.84565 -9.94903,-3.12225 -16.20603,-6.62278 -15.71429,-8.7915 0.44938,-1.98195 34.18835,-38.41951 74.9755,-80.97235 l 74.1584,-77.368805 35.8416,-11.27898 c 19.7128,-6.20344 40.0469,-12.11114 45.1867,-13.12822 5.1399,-1.01709 10.0501,-2.98987 10.9117,-4.38396 3.1583,-5.11017 6.6352,0.7083 4.1509,6.94624 -8.3839,21.05135 -14.4476,48.74739 -9.6145,43.91427 1.0648,-1.06485 6.585,-13.08349 12.2671,-26.70809 5.6821,-13.6246 12.0871,-25.35737 14.2335,-26.07282 2.8198,-0.93992 3.3089,0.19453 1.7632,4.08904 -1.1766,2.96442 -7.9193,25.96129 -14.9838,51.10414 -13.1526,46.811295 -22.9191,80.436125 -30.705,105.714295 l -4.4001,14.28571 1.5234,-12.85714 c 0.8378,-7.07143 2.2652,-18.64286 3.172,-25.71429 1.1835,-9.22981 0.7672,-12.0399 -1.4756,-9.96043 -1.7183,1.59319 -7.7432,24.09319 -13.3887,50 -9.7623,44.79857 -20.8654,77.10329 -26.5005,77.10329 -3.5498,0 -20.1913,-5.47489 -30.5845,-10.062 -13.1229,-5.79191 -24.2857,-8.05055 -24.2857,-4.91391 0,1.53253 8.6786,6.04827 19.2857,10.03497 44.1012,16.57544 55.6426,21.83383 98.7112,44.97386 24.8268,13.33902 49.8982,27.11997 55.7142,30.62431 5.8161,3.50431 12.3363,7.23689 14.4895,8.2946 9.5789,4.70546 51.7478,34.56091 65.6639,46.48986 21.6862,18.58934 45.4876,55.44374 48.2634,74.7314 2.0468,14.22268 9.1954,23.51497 9.3916,12.20785 0.085,-4.88225 0.3913,-4.84988 4.5136,0.4762 9.3588,12.09175 19.3652,34.94026 21.8974,50 3.1222,18.56929 3.1721,22.76363 0.4848,40.79969 -1.8221,12.22906 -4.1606,15.63786 -22.3679,32.60511 -20.309,18.92583 -59.9755,46.59409 -66.8004,46.59483 -1.9856,2e-4 -5.8428,1.21752 -8.5715,2.70512 -15.8199,8.6246 -63.9533,21.24411 -103.5326,27.14394 -43.1809,6.43671 -241.13561,8.51349 -294.28572,3.0874 z M 1179.2534,587.87439 c 71.0794,-9.40297 129.877,-29.291 156.4691,-52.925 18.1525,-16.13326 29.8086,-40 19.5352,-40 -1.2265,0 -3.5721,2.89286 -5.2125,6.42857 -1.6404,3.53571 -7.954,12.62723 -14.0301,20.20337 -11.8626,14.7912 -40.4211,31.79257 -63.9046,38.04343 -7.0714,1.88229 -22.5,6.10023 -34.2857,9.3732 -31.1461,8.64949 -65.4554,11.85209 -158.5714,14.80177 -99.2943,3.1454 -90.71998,3.08894 -139.28572,0.9172 -26.09466,-1.16688 -39.28572,-0.77231 -39.28572,1.17512 0,2.87385 14.38694,5.18611 45.71429,7.34711 39.10548,2.69757 199.91855,-1.0074 232.85715,-5.36477 z M 897.82482,586.5705 c 0,-3.68765 -6.604,-5.30174 -31.08772,-7.59808 -17.35531,-1.62777 -20.85591,-1.27386 -19.77814,1.99957 1.82883,5.55457 50.86586,10.95177 50.86586,5.59851 z m -54.99012,-6.62111 c -0.64934,-1.96429 -8.14934,-4.5198 -16.66668,-5.67892 -66.01943,-8.98448 -161.89874,-24.98348 -193.4828,-32.28565 -9.8982,-2.28843 -33.04106,-7.36255 -51.42857,-11.27575 -32.17037,-6.84651 -99.6736,-24.30568 -153.37757,-39.66994 -16.25026,-4.64906 -26.65783,-6.34331 -28.38095,-4.6202 -1.49651,1.49652 -2.15485,3.28703 -1.46297,3.97892 2.22154,2.22151 114.06823,32.79228 158.36109,43.2844 64.1206,15.18894 151.09063,32.00514 205.71428,39.77614 81.21209,11.5536 82.43009,11.65154 80.72417,6.491 z M 397.08716,484.30525 c 1.41723,-4.25175 -71.20188,-27.1306 -74.77457,-23.55792 -1.47303,1.47303 -2.12111,3.16652 -1.44014,3.76329 2.62397,2.2996 69.95174,24.21354 72.48808,23.59354 1.4732,-0.36014 3.1502,-2.06963 3.72663,-3.79891 z m 48.77583,-25.80783 c 0.64531,-6.67615 -0.2854,-9.26232 -3.33334,-9.26232 -2.32575,0 -4.73432,1.51703 -5.35237,3.37117 -1.76743,5.30229 -11.32943,0.16858 -10.25415,-5.5054 0.66406,-3.504 4.16075,-5.27502 11.63975,-5.8954 19.13305,-1.58702 9.68654,-8.98611 -11.58523,-9.07422 -7.5872,-0.0314 -10.36497,-1.77569 -14.28572,-8.97049 -7.37671,-13.5368 -17.7538,-25.35423 -22.26394,-25.35423 -3.05737,0 -4.03174,4.48823 -4.03174,18.57143 l 0,18.57143 -15.29517,0 c -8.41235,0 -23.01692,0.80708 -32.4546,1.79351 l -17.15946,1.79352 -11.83109,-23.8098 c -17.28363,-34.78286 -17.6592,-34.06295 17.77012,-34.06295 35.37805,0 58.19768,-2.63342 52.74997,-6.08745 -4.75192,-3.01283 -102.65851,-2.93669 -118.06549,0.0917 l -11.42857,2.24652 8.04314,3.30311 c 4.42373,1.81674 10.28514,3.30314 13.02535,3.30314 2.74021,0 7.42706,1.78772 10.41522,3.97272 4.69578,3.43365 4.96372,5.00271 1.97466,11.56303 -1.9021,4.17477 -3.45837,10.74417 -3.45837,14.5988 0,15.40937 -16.46164,21.85897 -42.5,16.65128 -10.78328,-2.15666 -11.06752,-4.15706 -1.83508,-12.9144 7.37239,-6.993 9.46673,-17.84263 4.08613,-21.16803 -1.70835,-1.05583 -4.46728,-0.55848 -6.13095,1.1052 -1.66367,1.66366 -6.7294,2.28395 -11.25716,1.3784 -9.59515,-1.91905 -17.45132,3.90575 -24.0646,17.8422 -3.539,7.45789 -3.70674,11.36955 -0.95603,22.29363 3.73433,14.83037 5.24252,15.72812 12.65769,7.53443 6.12521,-6.76829 10.81096,-7.16326 19.38624,-1.63411 6.5982,4.25437 84.72585,19.16725 88.4709,16.8872 4.0076,-2.43989 2.16346,-7.30095 -2.14285,-5.64843 -2.35715,0.90451 -4.28572,0.52497 -4.28572,-0.8434 0,-1.36837 -3.7306,-3.78846 -8.29023,-5.37797 -6.02465,-2.1002 -8.75751,-5.29983 -10,-11.70806 -0.94037,-4.84994 -2.49011,-12.83609 -3.44385,-17.74697 -2.405,-12.38329 3.55468,-8.22292 10.17171,7.1008 7.72663,17.89325 14.84949,23.07934 27.92632,20.33291 12.32897,-2.5894 23.4512,-2.69417 58.62545,-0.55228 24.97263,1.52065 30.33915,3.73 46.43917,19.11862 5.53903,5.29426 11.41735,1.56955 12.32389,-7.80885 z m 57.30137,-20.69089 c 3.08683,0 8.13177,3.45852 11.21097,7.6856 l 5.59857,7.68557 4.6046,-8.90428 c 3.92789,-7.59572 7.02409,-9.37983 21.06832,-12.14003 21.52091,-4.22966 23.60657,-4.9952 23.60657,-8.66477 0,-2.90237 -19.0272,-2.19629 -44.49003,1.65097 -7.21854,1.09068 -10.6406,-0.53894 -19.28571,-9.18403 -5.78049,-5.78049 -10.50997,-11.5814 -10.50997,-12.89094 0,-5.49206 -10.87303,-1.96703 -12.48489,4.04763 -2.22351,8.297 -2.21683,30.29911 0.0114,38.6164 l 1.73454,6.47351 6.66146,-7.1878 c 3.66411,-3.95331 9.18734,-7.18783 12.27414,-7.18783 z M 603.5391,402.09225 c 0,-2.38095 -2.53968,-4.28572 -5.71428,-4.28572 -6.32369,0 -7.74174,4.42 -2.14286,6.6792 6.21737,2.50877 7.85714,2.00923 7.85714,-2.39348 z m -22.85714,-10 c 0,-1.57143 -3.93303,-2.85715 -8.74006,-2.85715 -5.09914,0 -8.00445,1.19023 -6.97422,2.85715 0.9712,1.57142 4.90422,2.85714 8.74005,2.85714 3.83583,0 6.97423,-1.28572 6.97423,-2.85714 z m -40.70243,-6.42858 c -1.23943,-3.75574 -46.78431,-9.89422 -49.94677,-6.73174 -4.59806,4.59806 13.38606,9.40526 37.31586,9.9746 9.87968,0.23514 13.47414,-0.68777 12.63091,-3.24286 z m 12.131,0.71429 c 0,-1.57143 -1.92857,-2.85714 -4.28571,-2.85714 -2.35714,0 -4.28572,1.28571 -4.28572,2.85714 0,1.57143 1.92858,2.85714 4.28572,2.85714 2.35714,0 4.28571,-1.28571 4.28571,-2.85714 z m -68.57143,-5.71429 c 0,-1.57142 -3.29017,-2.85714 -7.31148,-2.85714 -4.14674,0 -6.54714,1.23669 -5.54566,2.85714 0.9712,1.57143 4.26137,2.85715 7.31149,2.85715 3.05011,0 5.54565,-1.28572 5.54565,-2.85715 z M 431.81456,253.4214 c 23.95392,-27.28201 -3.04803,-66.99615 -28.34891,-41.69525 -14.15189,14.15188 -14.68332,31.58335 -1.3688,44.89787 9.8322,9.8322 19.15514,8.82748 29.71771,-3.20262 z M 1152.1105,140.66367 c 0,-3.14285 -1.2857,-5.71428 -2.8571,-5.71428 -1.5714,0 -2.8572,2.57143 -2.8572,5.71428 0,3.14286 1.2858,5.71429 2.8572,5.71429 1.5714,0 2.8571,-2.57143 2.8571,-5.71429 z"
       id="path4942"
       inkscape:connector-curvature="0" />
    <path
       style="fill:#ececec;fill-opacity:0.98000004"
       d="M 389.54102 602.39453 C 388.07722 602.39977 387.23438 605.9115 387.23438 612.20117 C 387.23438 618.48688 388.51841 624.42333 390.08984 625.39453 C 391.66127 626.36572 392.94727 629.65691 392.94727 632.70703 C 392.94727 636.92442 394.93693 638.25195 401.25195 638.25195 C 408.44332 638.25195 409.33643 637.39149 407.91992 631.82422 C 405.99231 624.24819 394.47086 605.24456 390.20703 602.60938 C 389.9733 602.46492 389.75013 602.39378 389.54102 602.39453 z "
       transform="translate(-3.0517571e-4,-198.4253)"
       id="path4944" />
    <path
       style="fill:none;fill-rule:evenodd;stroke:#000000;stroke-width:1px;stroke-linecap:butt;stroke-linejoin:miter;stroke-opacity:1"
       d="m 359.99969,452.36205 c -10.8358,-18.89735 -11.42857,-18.3788 -11.42857,-31.42857 0,-0.95238 0,-1.90476 0,-2.85714 0,-0.95238 -0.95238,-2.85714 0,-2.85714 0.95238,0 0,3.80952 0,2.85714 0,-1.90476 0,-3.80952 0,-5.71429 0,-0.95238 -0.95238,-2.85714 0,-2.85714 0.95238,0 0,3.80952 0,2.85714 0,-1.90476 0,-3.80952 0,-5.71428 0,-0.95238 0,-1.90476 0,-2.85715 0,-0.95238 -0.42592,-2.0053 0,-2.85714 0.60234,-1.20468 1.90476,-1.90476 2.85714,-2.85714 0.95238,-0.95238 1.65247,-2.25481 2.85714,-2.85714 0.85184,-0.42592 2.85715,-0.95238 2.85715,0 0,0.95238 -2.85715,0.95238 -2.85715,0 0,-1.34687 1.90477,-3.80953 2.85715,-2.85715 1.34687,1.34687 0,3.80953 0,5.71429 0,0.95238 0.95238,2.85714 0,2.85714 -0.95238,0 0,-3.80952 0,-2.85714 0,1.90476 0,3.80952 0,5.71428 0,0.95239 0.95238,2.85715 0,2.85715 -0.95238,0 0,-3.80953 0,-2.85715 0,1.90477 -1.05657,4.12943 0,5.71429 2.1887,3.28306 5.54233,2.85714 8.57143,2.85714 0.95238,0 2.1837,-0.67343 2.85714,0 1.50585,1.50585 1.35129,4.20844 2.85714,5.71429 1.34687,1.34687 4.36742,-1.34687 5.71429,0 0.67343,0.67343 -0.42592,2.00531 0,2.85714 0.60234,1.20468 1.90476,1.90476 2.85714,2.85714 0.95238,0.95239 3.80952,1.90477 2.85714,2.85715 -0.95238,0.95238 -2.85714,-4.20402 -2.85714,-2.85715 0,2.12959 2.18371,3.69399 2.85714,5.71429 0.60234,1.80702 -0.85183,4.01062 0,5.71429 0.60234,1.20467 2.11004,1.73648 2.85715,2.85714 1.18128,1.77192 0.72755,5.71428 2.85714,5.71428 8.1344,0 4.95539,-8.01353 5.71428,-11.42857 1.50408,-6.76833 3.80953,-13.33333 5.71429,-20"
       id="path4969"
       inkscape:connector-curvature="0" />
    <path
       style="fill:none;fill-rule:evenodd;stroke:#000000;stroke-width:1px;stroke-linecap:butt;stroke-linejoin:miter;stroke-opacity:1"
       d="m 359.99969,412.36205 -40,40"
       id="path4971"
       inkscape:connector-curvature="0" />
    <path
       style="fill:none;fill-rule:evenodd;stroke:#000000;stroke-width:1px;stroke-linecap:butt;stroke-linejoin:miter;stroke-opacity:1"
       d="m 439.99969,452.36205 c 2.85714,-7.61904 5.71429,-15.23809 8.57143,-22.85714 0.95238,0 2.18371,0.67344 2.85714,0 1.50585,-1.50585 2.18371,-3.69398 2.85714,-5.71429 0.60234,-1.80701 -1.34687,-4.36741 0,-5.71428 0.67344,-0.67344 2.18371,0.67343 2.85715,0 0.67343,-0.67344 0,-1.90476 0,-2.85714 0,-0.95238 0,-1.90477 0,-2.85715 0,-0.69293 -0.0919,-8.47954 0,-8.57143 0.67343,-0.67343 2.85714,-0.95238 2.85714,0 0,0.95239 -2.85714,0.95239 -2.85714,0 0,-5.94537 4.00677,-1.14962 5.71428,-2.85714 0.67344,-0.67343 -0.95238,-2.85714 0,-2.85714 0.95238,0 -0.67343,2.18371 0,2.85714 4.76191,4.76191 2.85715,-10.47619 2.85715,5.71429 0,0.95238 0,-1.90476 0,-2.85715 0,-0.95238 -0.81666,-3.34713 0,-2.85714 5.22917,3.13751 9.52381,7.61905 14.28571,11.42857"
       id="path4973"
       inkscape:connector-curvature="0" />
    <path
       style="fill:none;fill-rule:evenodd;stroke:#000000;stroke-width:1px;stroke-linecap:butt;stroke-linejoin:miter;stroke-opacity:1"
       d="m 479.99969,412.36205 c -5.71429,0.95238 -11.64703,1.02521 -17.14286,2.85715 -0.90351,0.30117 -0.42591,2.0053 0,2.85714 1.71429,3.42857 6.85715,5.14286 8.57143,8.57143 0.42592,0.85183 -0.42592,2.00531 0,2.85714 0.60234,1.20468 2.43123,1.57939 2.85714,2.85714 0.60234,1.80702 -0.85183,4.01062 0,5.71429 0.42592,0.85183 2.18371,-0.67344 2.85715,0 0.67343,0.67343 0,1.90476 0,2.85714 0,1.90476 -0.85184,4.01062 0,5.71429 0.42591,0.85183 2.1837,-0.67344 2.85714,0 7.61905,7.61905 -7.61905,0 0,0 1.34687,0 1.51027,2.85714 2.85714,2.85714 0.95238,0 0.67344,-3.53058 0,-2.85714 -1.50584,1.50584 -1.90476,3.80952 -2.85714,5.71428"
       id="path4975"
       inkscape:connector-curvature="0" />
    <path
       style="fill:none;fill-rule:evenodd;stroke:#000000;stroke-width:1px;stroke-linecap:butt;stroke-linejoin:miter;stroke-opacity:1"
       d="m -3.0517571e-4,712.36205 0,0 0,0"
       id="path4993"
       inkscape:connector-curvature="0" />
    <path
       style="fill:none;fill-rule:evenodd;stroke:#000000;stroke-width:1px;stroke-linecap:butt;stroke-linejoin:miter;stroke-opacity:1"
       d="m 339.99969,432.36205 c 1.15062,-0.0779 3.37398,-1.38428 3.45187,-0.23366 0.0779,1.15062 -4.09158,1.19323 -3.45187,0.23366 1.80937,-2.71405 4.7722,-4.49458 7.49248,-6.29457 1.12323,-0.74324 3.08822,0.95238 4.04061,0 0.48614,-0.48615 -0.48615,-7.59508 0,-8.08122 0.47619,-0.4762 2.0203,-0.67344 2.0203,0 0,0.67343 -2.0203,0.67343 -2.0203,0 0,-1.50585 1.54411,-2.61204 2.0203,-4.04061 0.21296,-0.63888 0,-1.34687 0,-2.02031 0,-1.34687 0,-2.69374 0,-4.04061 0,-0.67344 -0.67343,-2.02031 0,-2.02031 0.67344,0 0,2.69374 0,2.02031 0,-1.34687 -0.95238,-3.08823 0,-4.04061 0.95238,-0.95238 2.83593,0.60234 4.04061,0 0.33363,-0.16681 0,-5.5234 0,-6.06092 0,-0.67343 -0.67343,-2.0203 0,-2.0203 0.67344,0 0.67344,2.0203 0,2.0203 -0.95238,0 -2.40665,-1.1498 -2.0203,-2.0203 0.75478,-1.70067 2.95087,-2.26723 4.4263,-3.40085"
       id="path4999"
       inkscape:connector-curvature="0" />
    <path
       style="fill:none;fill-rule:evenodd;stroke:#000000;stroke-width:1px;stroke-linecap:butt;stroke-linejoin:miter;stroke-opacity:1"
       d="m 359.99969,392.36205 c 1.21831,5.84766 2.55795,11.67135 3.65492,17.54299 0.29756,1.59274 -0.54114,7.26951 0,8.08122 0.83529,1.25294 3.20531,0.76736 4.04061,2.0203 0.74711,1.12066 -0.95238,3.08823 0,4.04061 0.95238,0.95238 2.69374,0 4.04061,0 0.67343,0 2.0203,-0.67343 2.0203,0 0,0.67344 -2.0203,-0.67343 -2.0203,0 0,0.95238 1.71913,1.1168 2.0203,2.02031 0.42592,1.27775 -0.95238,3.08822 0,4.04061 0.95238,0.95238 2.83593,-0.60234 4.04061,0 0.60234,0.30117 0,1.34687 0,2.0203 0,0.74193 0.0813,7.99992 0,8.08122 -0.47619,0.47619 -1.54411,-0.47619 -2.0203,0 -0.47619,0.47619 0.67343,2.02031 0,2.02031 -0.67344,0 0.67343,-2.02031 0,-2.02031 -0.95238,0 -2.47164,2.85896 -2.02031,2.02031 1.84459,-3.42758 4.16237,-6.57858 6.24356,-9.86787"
       id="path5001"
       inkscape:connector-curvature="0" />
    <path
       style="fill:none;fill-rule:evenodd;stroke:#000000;stroke-width:1px;stroke-linecap:butt;stroke-linejoin:miter;stroke-opacity:1"
       d="m 479.99969,432.36205 c -4.43651,-0.75132 -9.02535,-0.87813 -13.30952,-2.25396 -0.64119,-0.20592 0,-1.34687 0,-2.02031 0,-0.67343 0,-1.34687 0,-2.0203 0,-4.04061 0,-8.08122 0,-12.12183 0,-0.48998 0.065,-5.99595 0,-6.06092 -0.47619,-0.47619 -1.71914,0.60234 -2.02031,0 -0.60234,-1.20468 0.42592,-2.76286 0,-4.04061 -0.60234,-1.80702 -3.43827,-2.23359 -4.04061,-4.04061 -0.42592,-1.27775 0,-2.69374 0,-4.04061 0,-0.67344 0.12258,2.68249 0,2.0203 -0.33114,-1.7888 -0.41971,-3.6141 -0.62956,-5.42115"
       id="path5003"
       inkscape:connector-curvature="0" />
    <path
       style="fill:none;fill-rule:evenodd;stroke:#000000;stroke-width:1px;stroke-linecap:butt;stroke-linejoin:miter;stroke-opacity:1"
       d="m 459.99969,392.36205 c -3.15732,5.17423 -6.02711,10.53527 -9.47197,15.52268 -1.08251,1.56725 -2.69374,2.69374 -4.04061,4.04061 -1.34687,1.34687 -2.69374,2.69374 -4.04061,4.04061 -0.67343,0.67344 -1.49201,1.22788 -2.0203,2.02031 -0.25088,0.37632 -3.91115,7.95176 -4.04061,8.08122 -0.47619,0.47619 -1.54412,-0.47619 -2.02031,0 -0.47619,0.47619 0.67344,2.0203 0,2.0203 -0.67343,0 0.67344,-2.0203 0,-2.0203 -0.95238,0 -1.71913,1.11679 -2.0203,2.0203 -6.73435,7.72574 2.0203,2.53476 2.0203,4.04061 0,0.67344 -2.0203,-0.67343 -2.0203,0 0,3.08995 7.84677,2.02031 10.10152,2.02031 0.67344,0 1.54412,-0.47619 2.02031,0 0.47619,0.47619 -0.47619,1.54411 0,2.0203 0.47619,0.47619 1.71914,0.60234 2.0203,0 0.60234,-1.20468 0,-2.69374 0,-4.04061 0,-0.67343 -0.67343,-2.0203 0,-2.0203 0.67344,0 0.63614,1.79928 0,2.0203 -2.04402,0.71017 -4.32495,0.15578 -6.48742,0.23366"
       id="path5005"
       inkscape:connector-curvature="0" />
  </g>
</svg>
